<svg xmlns="http://www.w3.org/2000/svg" viewBox="0 0 32.95 23.41"><defs><style>.cls-1{fill:none;stroke:#fff;stroke-miterlimit:8;stroke-width:0.92px;}.cls-2,.cls-3{fill:#fff;}.cls-2{fill-rule:evenodd;}</style></defs><g id="Layer_2" data-name="Layer 2"><g id="Layer_1-2" data-name="Layer 1"><line class="cls-1" x1="9.47" y1="8.92" x2="32.95" y2="8.92"/><line class="cls-1" x1="9.84" y1="8.74" x2="3.39" y2="18.35"/><polygon class="cls-2" points="2.09 15.96 0 23.41 6.05 18.73 2.09 15.96 2.09 15.96"/><path class="cls-3" d="M18.77,4.88a.44.44,0,0,1,0,.14.11.11,0,0,1,0,.08.13.13,0,0,1-.1,0h-.5l-.05,0,0-.06-.44-1.23h-2.1L15.14,5a.16.16,0,0,1,0,.06l-.06.05-.11,0h-.36a.19.19,0,0,1-.1,0s0,0,0-.08a.27.27,0,0,1,0-.13L16.18.18a.16.16,0,0,1,0-.07.15.15,0,0,1,.08,0l.12,0h.4l.13,0a.15.15,0,0,1,.08,0,.16.16,0,0,1,0,.07ZM16.59.73h0l-.87,2.52h1.76Z"/><path class="cls-3" d="M23,3.67a1.56,1.56,0,0,1-.06.44,1.49,1.49,0,0,1-.17.36,1.44,1.44,0,0,1-.27.28,1.33,1.33,0,0,1-.35.2,1.64,1.64,0,0,1-.41.13,3.77,3.77,0,0,1-.51,0H19.86a.29.29,0,0,1-.17-.06.27.27,0,0,1-.08-.22V.34a.27.27,0,0,1,.08-.22.29.29,0,0,1,.17-.06H21a2.53,2.53,0,0,1,.74.09,1.33,1.33,0,0,1,.49.25,1.06,1.06,0,0,1,.29.4,1.53,1.53,0,0,1,.1.54,1.27,1.27,0,0,1-.05.34,1.66,1.66,0,0,1-.12.31,1,1,0,0,1-.22.24.79.79,0,0,1-.29.18,1.32,1.32,0,0,1,.39.15,1,1,0,0,1,.31.26,1.19,1.19,0,0,1,.22.38A1.4,1.4,0,0,1,23,3.67Zm-1-2.26a.9.9,0,0,0-.05-.34.56.56,0,0,0-.16-.25.69.69,0,0,0-.28-.16A1.89,1.89,0,0,0,21,.61h-.7V2.25h.77a1.22,1.22,0,0,0,.42-.07A.83.83,0,0,0,21.73,2a.72.72,0,0,0,.16-.27A1.06,1.06,0,0,0,21.93,1.41Zm.31,2.3a1.19,1.19,0,0,0-.07-.4A.78.78,0,0,0,22,3a1,1,0,0,0-.35-.18,1.93,1.93,0,0,0-.53-.06h-.8V4.56h1a1.62,1.62,0,0,0,.4,0,1.08,1.08,0,0,0,.3-.16.66.66,0,0,0,.2-.27A.87.87,0,0,0,22.24,3.71Z"/><path class="cls-3" d="M27.34,4.4v.11s0,.06,0,.08a.14.14,0,0,1,0,.07.33.33,0,0,1-.06.06.64.64,0,0,1-.16.12,1.49,1.49,0,0,1-.31.16,3.68,3.68,0,0,1-.43.13,2.78,2.78,0,0,1-.52,0A2.28,2.28,0,0,1,24.93,5a1.85,1.85,0,0,1-.68-.49,2.3,2.3,0,0,1-.43-.79,3.57,3.57,0,0,1-.15-1.08,3.78,3.78,0,0,1,.16-1.12A2.43,2.43,0,0,1,24.29.7,2,2,0,0,1,25,.18,2.21,2.21,0,0,1,25.9,0a2,2,0,0,1,.42,0,3,3,0,0,1,.38.1A1.91,1.91,0,0,1,27,.29a1.46,1.46,0,0,1,.19.13l.06.08,0,.07a.64.64,0,0,1,0,.09V.78a.53.53,0,0,1,0,.13.2.2,0,0,1,0,.09.13.13,0,0,1,0,.06H27.2A.25.25,0,0,1,27.05,1a2.36,2.36,0,0,0-.26-.17,2.14,2.14,0,0,0-.37-.17,1.73,1.73,0,0,0-.54-.07,1.36,1.36,0,0,0-.61.13,1.2,1.2,0,0,0-.47.4,1.66,1.66,0,0,0-.31.64,3.15,3.15,0,0,0-.11.86,3.13,3.13,0,0,0,.11.85,1.74,1.74,0,0,0,.3.61,1.24,1.24,0,0,0,.47.38,1.62,1.62,0,0,0,.64.13,1.64,1.64,0,0,0,.53-.08,2.42,2.42,0,0,0,.39-.16l.26-.17a.3.3,0,0,1,.16-.07h.05l0,0s0,0,0,.09A.66.66,0,0,1,27.34,4.4Z"/></g></g></svg>