<svg xmlns="http://www.w3.org/2000/svg" viewBox="0 0 33.81 35.99"><defs><style>.cls-1{fill:#fff;}</style></defs><g id="Layer_2" data-name="Layer 2"><g id="Layer_1-2" data-name="Layer 1"><path class="cls-1" d="M16.89,36H8.47a3.73,3.73,0,0,1-4.1-3.76C3.92,27.15,3.44,22.07,3,17l-.9-9.84c0-.39-.07-.78.38-1s.89.1,1,.75c.1,1,.18,2,.27,3q.57,6.16,1.13,12.32.48,5.15.93,10.29A2.26,2.26,0,0,0,8,34.64H25.76a2.17,2.17,0,0,0,2.24-2c.31-3.17.59-6.35.89-9.52s.56-6.05.85-9.08q.33-3.55.65-7.11c0-.5.21-.86.75-.8s.6.45.55.9c-.29,3.16-.57,6.31-.86,9.47l-.81,9c-.22,2.46-.41,4.91-.67,7.37A3.61,3.61,0,0,1,25.64,36C22.72,36,19.81,36,16.89,36Z"/><path class="cls-1" d="M16.92,4.85c-3.45,0-6.89,0-10.34,0-1.89,0-3.79,0-5.68,0-.46,0-.9-.06-.9-.64s.44-.68.93-.68c1.17,0,2.34,0,3.51,0A1,1,0,0,0,5.37,3c.5-.72,1-1.4,1.56-2.1A2.05,2.05,0,0,1,8.67,0H25.14a2.07,2.07,0,0,1,1.73.92c.54.74,1.07,1.49,1.65,2.19a1.13,1.13,0,0,0,.72.36c1.21,0,2.43,0,3.64,0,.48,0,.91.09.93.63s-.43.7-.93.7h-16Zm10.17-1.4a19,19,0,0,0-1.24-1.62,1.58,1.58,0,0,0-1-.5q-8,0-15.89,0a1.11,1.11,0,0,0-.72.17c-.53.61-1,1.27-1.55,2Z"/><path class="cls-1" d="M22.47,20.59v8.8c0,.21.05.48,0,.62a1.07,1.07,0,0,1-.65.48c-.19,0-.47-.25-.59-.46a1.38,1.38,0,0,1-.07-.68V11.86c0-.84.23-1.25.71-1.19.7.1.65.66.65,1.18Z"/><path class="cls-1" d="M16.23,20.52V11.73c0-.17-.05-.39,0-.5s.39-.52.61-.53.49.26.63.48a1.42,1.42,0,0,1,.06.69V29.34c0,.51.07,1.09-.65,1.18-.46.06-.68-.34-.68-1.2Z"/><path class="cls-1" d="M12.65,20.66v8.81c0,.17.06.39,0,.5s-.4.51-.61.52-.5-.26-.63-.48a1.43,1.43,0,0,1-.05-.69V11.76c0-.17-.06-.39,0-.5s.42-.56.64-.55.45.33.62.57,0,.33,0,.5Z"/></g></g></svg>