<svg xmlns="http://www.w3.org/2000/svg" viewBox="0 0 21.12 40.16"><defs><style>.cls-1{fill:#fff;}</style></defs><g id="Layer_2" data-name="Layer 2"><g id="Layer_1-2" data-name="Layer 1"><path class="cls-1" d="M21.12,11.37a12.89,12.89,0,0,1-.66,4.25,9.89,9.89,0,0,1-1.86,3.27,9.15,9.15,0,0,1-2.86,2.21A10.87,10.87,0,0,1,12,22.16l-.23,5.6c0,.34-.28.6-.8.77a7.16,7.16,0,0,1-2.24.26c-.61,0-1.13,0-1.56,0a4.24,4.24,0,0,1-1-.16,1.07,1.07,0,0,1-.54-.31,1,1,0,0,1-.2-.52L5.23,21a6.51,6.51,0,0,1,.09-1.49,2,2,0,0,1,.4-.92,1.55,1.55,0,0,1,.75-.47A3.78,3.78,0,0,1,7.54,18h.39a6.14,6.14,0,0,0,2.57-.49,5,5,0,0,0,1.79-1.29,5,5,0,0,0,1-1.89A8.41,8.41,0,0,0,13.64,12a8.14,8.14,0,0,0-.38-2.53,5.43,5.43,0,0,0-1.15-2,5,5,0,0,0-1.94-1.27,7.66,7.66,0,0,0-2.75-.45A10.17,10.17,0,0,0,4.89,6,12.48,12.48,0,0,0,3,6.66c-.53.23-1,.44-1.31.63a1.9,1.9,0,0,1-.8.29.6.6,0,0,1-.37-.13A1,1,0,0,1,.25,7,6,6,0,0,1,.07,6,14.29,14.29,0,0,1,0,4.39,9.81,9.81,0,0,1,.08,2.93a1.4,1.4,0,0,1,.37-.75,4.25,4.25,0,0,1,1.07-.67A12,12,0,0,1,3.4.79,19.82,19.82,0,0,1,5.85.23,17.1,17.1,0,0,1,8.66,0a15.46,15.46,0,0,1,5.68.93,10.6,10.6,0,0,1,3.87,2.51,10,10,0,0,1,2.21,3.62A13.11,13.11,0,0,1,21.12,11.37ZM12.8,36a8.56,8.56,0,0,1-.19,2A2.62,2.62,0,0,1,12,39.24a2.65,2.65,0,0,1-1.24.71,7.39,7.39,0,0,1-1.9.21A7.45,7.45,0,0,1,6.89,40,2.51,2.51,0,0,1,5,38a9.22,9.22,0,0,1-.18-2A9.56,9.56,0,0,1,5,34a2.74,2.74,0,0,1,.65-1.32,2.49,2.49,0,0,1,1.22-.72,7,7,0,0,1,1.94-.22,6.94,6.94,0,0,1,1.9.22,2.51,2.51,0,0,1,1.24.72A2.73,2.73,0,0,1,12.61,34,8.88,8.88,0,0,1,12.8,36Z"/></g></g></svg>