<svg xmlns="http://www.w3.org/2000/svg" viewBox="0 0 35.48 11.15"><defs><style>.cls-1{fill:none;stroke:#fff;stroke-miterlimit:8;stroke-width:0.92px;}.cls-2,.cls-3{fill:#fff;}.cls-2{fill-rule:evenodd;}</style></defs><g id="Layer_2" data-name="Layer 2"><g id="Layer_1-2" data-name="Layer 1"><line class="cls-1" x1="6" y1="8.7" x2="29.48" y2="8.7"/><polygon class="cls-2" points="28.28 6.25 35.48 8.7 28.28 11.15 28.28 6.25 28.28 6.25"/><polygon class="cls-2" points="7.2 11.15 0 8.7 7.2 6.25 7.2 11.15 7.2 11.15"/><path class="cls-3" d="M19.69,4.84a.69.69,0,0,1,.06.13s0,.06,0,.08a.16.16,0,0,1-.11,0H19.2l-.11,0L19,5,19,5,17.86,3,16.73,5,16.68,5l-.06,0-.11,0h-.39a.16.16,0,0,1-.11,0S16,5,16,5a.69.69,0,0,1,.06-.13l1.38-2.33L16.12.27,16.06.13s0-.07,0-.09a.24.24,0,0,1,.11,0h.41l.12,0a.09.09,0,0,1,.06,0l0,.06L17.9,2,19,.12l0-.06a.09.09,0,0,1,.05,0l.11,0h.37a.23.23,0,0,1,.11,0s0,0,0,.08l-.06.14L18.32,2.5Z"/></g></g></svg>