<svg xmlns="http://www.w3.org/2000/svg" xmlns:xlink="http://www.w3.org/1999/xlink" viewBox="0 0 37.79 38.59"><defs><style>.cls-1,.cls-2{fill:none;}.cls-1{clip-rule:evenodd;}.cls-3{clip-path:url(#clip-path);}.cls-4{clip-path:url(#clip-path-2);}.cls-5{fill:#fff;}</style><clipPath id="clip-path"><polygon class="cls-1" points="0 38.58 37.8 38.58 37.8 0 0 0 0 38.58 0 38.58"/></clipPath><clipPath id="clip-path-2"><polygon class="cls-2" points="0 38.58 37.8 38.58 37.8 0 0 0 0 38.58 0 38.58"/></clipPath></defs><g id="Layer_2" data-name="Layer 2"><g id="Layer_1-2" data-name="Layer 1"><g class="cls-3"><g class="cls-4"><path class="cls-5" d="M37.29,19.81H14.94a.52.52,0,0,1,0-1H37.29a.52.52,0,0,1,0,1Z"/><path class="cls-5" d="M30.6,26.63a.51.51,0,0,1-.36-.15.54.54,0,0,1,0-.73l6.32-6.46-6.32-6.45a.52.52,0,0,1,0-.73.5.5,0,0,1,.71,0l6.68,6.82a.54.54,0,0,1,0,.73L31,26.48a.49.49,0,0,1-.35.15Z"/><path class="cls-5" d="M22.85,19.81H.51a.52.52,0,0,1,0-1H22.85a.52.52,0,0,1,0,1Z"/><path class="cls-5" d="M7.2,26.63a.49.49,0,0,1-.35-.15L.16,19.66a.54.54,0,0,1,0-.73l6.68-6.82a.5.5,0,0,1,.71,0,.52.52,0,0,1,0,.73L1.23,19.29l6.33,6.46a.54.54,0,0,1,0,.73.51.51,0,0,1-.36.15Z"/><path class="cls-5" d="M18.9,38.59a.51.51,0,0,1-.51-.52V15.25a.51.51,0,1,1,1,0V38.07a.51.51,0,0,1-.5.52Z"/><path class="cls-5" d="M18.9,38.57a.51.51,0,0,1-.36-.15L11.86,31.6a.53.53,0,0,1,0-.72.5.5,0,0,1,.71,0l6.33,6.45,6.32-6.46a.5.5,0,0,1,.71,0,.52.52,0,0,1,0,.73l-6.68,6.82a.49.49,0,0,1-.35.15Z"/><path class="cls-5" d="M18.9,23.85a.51.51,0,0,1-.51-.52V.52a.51.51,0,1,1,1,0V23.33a.51.51,0,0,1-.5.52Z"/><path class="cls-5" d="M25.58,7.86a.51.51,0,0,1-.36-.15L18.9,1.26,12.57,7.72a.51.51,0,0,1-.71,0,.54.54,0,0,1,0-.73L18.54.16a.51.51,0,0,1,.71,0L25.93,7a.52.52,0,0,1,0,.73.5.5,0,0,1-.35.15Z"/></g></g></g></g></svg>