<svg xmlns="http://www.w3.org/2000/svg" xmlns:xlink="http://www.w3.org/1999/xlink" viewBox="0 0 34.19 35.83"><defs><style>.cls-1,.cls-2{fill:none;}.cls-1{clip-rule:evenodd;}.cls-3{clip-path:url(#clip-path);}.cls-4{clip-path:url(#clip-path-2);}.cls-5{fill:#fff;}</style><clipPath id="clip-path"><polygon class="cls-1" points="0 35.83 34.2 35.83 34.2 0 0 0 0 35.83 0 35.83"/></clipPath><clipPath id="clip-path-2"><polygon class="cls-2" points="0 35.83 34.2 35.83 34.2 0 0 0 0 35.83 0 35.83"/></clipPath></defs><g id="Layer_2" data-name="Layer 2"><g id="Layer_1-2" data-name="Layer 1"><g class="cls-3"><g class="cls-4"><path class="cls-5" d="M13.37,28C6,28,0,21.72,0,14S6,0,13.37,0,26.73,6.28,26.73,14s-6,14-13.36,14Zm0-26.82C6.62,1.19,1.13,6.93,1.13,14S6.62,26.83,13.37,26.83,25.6,21.08,25.6,14,20.11,1.19,13.37,1.19Z"/><path class="cls-5" d="M31.7,35.83a2.41,2.41,0,0,1-1.76-.77h0l-9.15-9.58a.62.62,0,0,1,0-.84l2.72-2.85a.55.55,0,0,1,.8,0l9.15,9.59a2.68,2.68,0,0,1,0,3.68,2.44,2.44,0,0,1-1.76.77ZM22,25.05l8.75,9.17h0a1.35,1.35,0,0,0,1.93,0,1.46,1.46,0,0,0,.4-1,1.51,1.51,0,0,0-.4-1L23.91,23l-1.92,2Z"/><path class="cls-5" d="M5.16,14.59A.57.57,0,0,1,4.6,14a9,9,0,0,1,8.76-9.18.59.59,0,0,1,0,1.18,7.84,7.84,0,0,0-7.64,8,.56.56,0,0,1-.56.58Z"/></g></g></g></g></svg>