<svg xmlns="http://www.w3.org/2000/svg" width="22" height="22" viewBox="0 0 22 22">
  <path id="_x30_8.Whatsapp" d="M21,10a11.009,11.009,0,0,0-8.91,17.462L10.578,31.45l4.373-1.265A10.883,10.883,0,0,0,21,32a11,11,0,1,0,0-22Zm5.858,15.565L25.675,26.72c-1.238,1.237-4.51-.11-7.4-3.025-2.887-2.888-4.18-6.16-3.025-7.37l1.182-1.182a1.2,1.2,0,0,1,1.65,0l1.733,1.732a1.145,1.145,0,0,1-.44,1.9,1.113,1.113,0,0,0-.743,1.347,5.282,5.282,0,0,0,3.218,3.19,1.149,1.149,0,0,0,1.347-.743,1.145,1.145,0,0,1,1.9-.44L26.83,23.86A1.3,1.3,0,0,1,26.858,25.565Z" transform="translate(-10 -10)" fill="#1479ff"/>
</svg>
