<svg xmlns="http://www.w3.org/2000/svg" width="31.483" height="38"><g data-name="017---Veterinarian" fill="#1479ff"><path d="M11.88 22.293a4.658 4.658 0 01-1.465 3.08L5.163 26.5a5.713 5.713 0 00-4.455 4.82l-.7 5.246A1.267 1.267 0 001.264 38h28.952a1.267 1.267 0 001.256-1.435l-.7-5.246a5.713 5.713 0 00-4.456-4.82l-5.252-1.125a4.678 4.678 0 01-1.468-3.074 10.089 10.089 0 003.618-5.905c1.78-.272 2.66-1.487 2.66-3.725a3.618 3.618 0 00-.388-1.768 8.309 8.309 0 00.393-2.208 1.259 1.259 0 00.627-1.09V6.333a1.267 1.267 0 00-1.054-1.245 7.069 7.069 0 00-1.661-3C21.019-.684 15.993-.063 12.446.646 9.709 1.192 8.622.22 8.583.186a.633.633 0 00-.963.08 11.067 11.067 0 00-1.744 4.86 1.267 1.267 0 00-.9 1.208V7.6a1.267 1.267 0 00.845 1.189 9.328 9.328 0 00.344 1.844 3.288 3.288 0 00-.555 2.034c0 2.238.878 3.452 2.66 3.725a10.074 10.074 0 003.613 5.9zm-9.917 9.194a4.443 4.443 0 013.466-3.749l5.1-1.092 4.582 3.437v6.65H1.264zm27.554 0l.7 5.246H16.373v-6.65l4.579-3.437 5.1 1.094a4.443 4.443 0 013.466 3.747zm-9.713-5.56l-4.064 3.048-4.064-3.048a6.1 6.1 0 001.38-3 7.41 7.41 0 005.366 0 6.1 6.1 0 001.382 3zm-4.064-3.761c-6.435 0-6.962-9.126-6.967-11.993a9.98 9.98 0 01.293-1.307h6.686a3.134 3.134 0 005.034 0h1.623a10.071 10.071 0 01.293 1.308c-.005 2.868-.532 11.992-6.967 11.992zM7.278 9.925a8.661 8.661 0 01-.184-1.058h.658A10.148 10.148 0 007.534 9.9a2.221 2.221 0 00-.256.025zM6.24 6.333h8.93a3.167 3.167 0 000 1.267H6.24zm10.133.633a1.9 1.9 0 111.9 1.9 1.9 1.9 0 01-1.9-1.899zm5-.633h3.863V7.6h-3.86a3.167 3.167 0 000-1.267zM23.946 9.9c-.031-.2-.1-.57-.218-1.034h.878A7.455 7.455 0 0124.431 10a2.09 2.09 0 00-.485-.1zm-.424 5.138a26.251 26.251 0 00.431-3.863.609.609 0 01.27.115 1.853 1.853 0 01.384 1.376c0 1.559-.468 2.143-1.085 2.372zM8.326 1.513a6.535 6.535 0 004.37.374c3.256-.651 7.856-1.245 10.197 1.094a5.573 5.573 0 011.217 2.086h-3.32a3.134 3.134 0 00-5.034 0H7.17a10.24 10.24 0 011.156-3.554zM6.873 12.667a1.853 1.853 0 01.384-1.379.608.608 0 01.27-.115 26.243 26.243 0 00.431 3.863c-.617-.226-1.085-.811-1.085-2.369z"/><path data-name="Shape" d="M20.855 32.993a.626.626 0 00.626.626h1.251v1.251a.626.626 0 001.251 0v-1.249h1.251a.626.626 0 000-1.251h-1.251v-1.251a.626.626 0 00-1.251 0v1.251h-1.251a.626.626 0 00-.626.623zM8.127 31.744a2.016 2.016 0 00-1.875 2.127c0 .607.244 1.627 1.877 1.627s1.877-1.019 1.877-1.627a2.016 2.016 0 00-1.879-2.127zm0 2.5c-.626 0-.626-.125-.626-.375 0-.475.287-.876.626-.876s.626.4.626.876c-.001.252-.001.375-.626.375z"/><circle cx=".626" cy=".626" r=".626" transform="translate(6.243 29.779)"/><circle data-name="Oval" cx=".626" cy=".626" r=".626" transform="translate(5.197 31.118)"/><circle data-name="Oval" cx=".626" cy=".626" r=".626" transform="translate(8.777 29.779)"/><circle data-name="Oval" cx=".626" cy=".626" r=".626" transform="translate(10.045 31.118)"/></g></svg>