<svg xmlns="http://www.w3.org/2000/svg" width="31.483" height="38" viewBox="0 0 31.483 38">
  <g id="Page-1" transform="translate(-0.148 0)">
    <g id="_017---Veterinarian" data-name="017---Veterinarian" transform="translate(0.148 0)">
      <path id="Shape" d="M12.028,22.293a4.658,4.658,0,0,1-1.465,3.08L5.311,26.5A5.713,5.713,0,0,0,.856,31.32l-.7,5.246A1.267,1.267,0,0,0,1.412,38H30.364a1.267,1.267,0,0,0,1.256-1.435l-.7-5.246a5.713,5.713,0,0,0-4.456-4.82l-5.252-1.125A4.678,4.678,0,0,1,19.744,22.3a10.089,10.089,0,0,0,3.618-5.905c1.78-.272,2.66-1.487,2.66-3.725a3.618,3.618,0,0,0-.388-1.768,8.309,8.309,0,0,0,.393-2.208,1.259,1.259,0,0,0,.627-1.09V6.333A1.267,1.267,0,0,0,25.6,5.088a7.069,7.069,0,0,0-1.661-3C21.167-.684,16.141-.063,12.594.646,9.857,1.192,8.77.22,8.731.186a.633.633,0,0,0-.963.08,11.067,11.067,0,0,0-1.744,4.86,1.267,1.267,0,0,0-.9,1.208V7.6a1.267,1.267,0,0,0,.845,1.189,9.328,9.328,0,0,0,.344,1.844,3.288,3.288,0,0,0-.555,2.034c0,2.238.878,3.452,2.66,3.725a10.074,10.074,0,0,0,3.613,5.9ZM2.111,31.487a4.443,4.443,0,0,1,3.466-3.749l5.1-1.092,4.582,3.437v6.65H1.412Zm27.554,0,.7,5.246H16.521v-6.65L21.1,26.646l5.1,1.094a4.443,4.443,0,0,1,3.466,3.747Zm-9.713-5.56-4.064,3.048-4.064-3.048a6.1,6.1,0,0,0,1.38-3,7.41,7.41,0,0,0,5.366,0A6.1,6.1,0,0,0,19.952,25.927Zm-4.064-3.761c-6.435,0-6.962-9.126-6.967-11.993a9.98,9.98,0,0,1,.293-1.307H15.9a3.134,3.134,0,0,0,5.034,0h1.623a10.071,10.071,0,0,1,.293,1.308c-.005,2.868-.532,11.992-6.967,11.992ZM7.426,9.925a8.661,8.661,0,0,1-.184-1.058H7.9A10.148,10.148,0,0,0,7.682,9.9,2.221,2.221,0,0,0,7.426,9.925ZM6.388,6.333h8.93a3.167,3.167,0,0,0,0,1.267H6.388Zm10.133.633a1.9,1.9,0,1,1,1.9,1.9A1.9,1.9,0,0,1,16.521,6.967Zm5-.633h3.863V7.6H21.524A3.167,3.167,0,0,0,21.524,6.333ZM24.094,9.9c-.031-.2-.1-.57-.218-1.034h.878A7.455,7.455,0,0,1,24.579,10a2.09,2.09,0,0,0-.485-.1Zm-.424,5.138a26.251,26.251,0,0,0,.431-3.863.609.609,0,0,1,.27.115,1.853,1.853,0,0,1,.384,1.376c0,1.559-.468,2.143-1.085,2.372ZM8.474,1.513a6.535,6.535,0,0,0,4.37.374C16.1,1.236,20.7.642,23.041,2.981a5.573,5.573,0,0,1,1.217,2.086H20.938a3.134,3.134,0,0,0-5.034,0H7.318A10.24,10.24,0,0,1,8.474,1.513ZM7.021,12.667a1.853,1.853,0,0,1,.384-1.379.608.608,0,0,1,.27-.115,26.243,26.243,0,0,0,.431,3.863C7.489,14.81,7.021,14.225,7.021,12.667Z" transform="translate(-0.148 0)" fill="#1479ff"/>
      <path id="Shape-2" data-name="Shape" d="M33,50.5a.626.626,0,0,0,.626.626h1.251v1.251a.626.626,0,0,0,1.251,0V51.128h1.251a.626.626,0,0,0,0-1.251H36.128V48.626a.626.626,0,0,0-1.251,0v1.251H33.626A.626.626,0,0,0,33,50.5Z" transform="translate(-12.145 -17.507)" fill="#1479ff"/>
      <path id="Shape-3" data-name="Shape" d="M11.875,50A2.016,2.016,0,0,0,10,52.127c0,.607.244,1.627,1.877,1.627s1.877-1.019,1.877-1.627A2.016,2.016,0,0,0,11.875,50Zm0,2.5c-.626,0-.626-.125-.626-.375,0-.475.287-.876.626-.876s.626.4.626.876C12.5,52.377,12.5,52.5,11.875,52.5Z" transform="translate(-3.748 -18.256)" fill="#1479ff"/>
      <circle id="Oval" cx="0.626" cy="0.626" r="0.626" transform="translate(6.243 29.779)" fill="#1479ff"/>
      <circle id="Oval-2" data-name="Oval" cx="0.626" cy="0.626" r="0.626" transform="translate(5.197 31.118)" fill="#1479ff"/>
      <circle id="Oval-3" data-name="Oval" cx="0.626" cy="0.626" r="0.626" transform="translate(8.777 29.779)" fill="#1479ff"/>
      <circle id="Oval-4" data-name="Oval" cx="0.626" cy="0.626" r="0.626" transform="translate(10.045 31.118)" fill="#1479ff"/>
    </g>
  </g>
</svg>
