<svg xmlns="http://www.w3.org/2000/svg" width="35.98" height="38"><g transform="translate(-13.611 -.001)" fill="#1479ff"><path data-name="Контур 4212" d="M28.389 10.049a.93.93 0 011.861 0 .557.557 0 001.113 0 2.044 2.044 0 00-4.087 0 .557.557 0 001.113 0z"/><path data-name="Контур 4213" d="M36.757 8.007a2.045 2.045 0 00-2.044 2.042.557.557 0 001.113 0 .93.93 0 011.861 0 .557.557 0 001.113 0 2.045 2.045 0 00-2.043-2.042z"/><path data-name="Контур 4214" d="M49.242 6.02A10 10 0 0045.6 1.875 9.5 9.5 0 0040.953.054a11.61 11.61 0 00-.906.01 1.538 1.538 0 00-1.336.914 16.933 16.933 0 00-11.346 0 1.538 1.538 0 00-1.337-.914c-.276-.015-.58-.018-.906-.01a9.5 9.5 0 00-4.646 1.821 10 10 0 00-3.642 4.145 4.165 4.165 0 001.036 4.78 7.945 7.945 0 011.1 1.337.557.557 0 00.937-.6 9.056 9.056 0 00-1.257-1.527 3.085 3.085 0 01-.784-3.579c1.122-2.831 5.21-5.21 7.282-5.264.3-.008.571 0 .817.009a.438.438 0 01.406.33.426.426 0 01-.169.479 4.476 4.476 0 00-1.881 3.824 36.791 36.791 0 01-.924 6.6c-.9 3.915-1.808 4.919-2.156 5.168a.434.434 0 01-.419.1c-.227-.072-.289-.091-.105-1.144a8 8 0 00.141-2.429.557.557 0 00-1.105.133 6.972 6.972 0 01-.133 2.105c-.156.9-.35 2.01.866 2.4a1.5 1.5 0 00.454.071 1.61 1.61 0 00.95-.327q.043-.031.085-.065a3.158 3.158 0 00.924 2.009l.006.006L26.5 23.9q.122.118.247.23a5.111 5.111 0 00-3.5 5.819l.678 3.637H23.4a2.887 2.887 0 00-1.3.314v-.018a2.994 2.994 0 01-2.452-3.986 3.664 3.664 0 00-.227-3.175l-.006-.011-.112-.187a.557.557 0 00-.548-.266 5.888 5.888 0 00-5.142 5.71 5.515 5.515 0 001.5 4.054C16.4 37.335 18.4 38 21.059 38h23.958a.556.556 0 00.557-.556v-.958a2.9 2.9 0 00-2.9-2.9h-.518l.678-3.637a5.111 5.111 0 00-3.436-5.8q.178-.16.349-.329l3.43-3.4a3.157 3.157 0 00.924-2.009 2.135 2.135 0 00.174.125 1.59 1.59 0 00.863.267 1.493 1.493 0 00.452-.071c1.215-.385 1.021-1.5.866-2.4a5.416 5.416 0 011.753-5.54 4.165 4.165 0 001.033-4.772zM20.5 36.486v.391a6.592 6.592 0 01-4.593-1.634 4.429 4.429 0 01-1.183-3.252 4.775 4.775 0 013.807-4.571 2.557 2.557 0 01.077 2.072l-.006.015a4.108 4.108 0 002.463 5.263 2.884 2.884 0 00-.565 1.716zm11.148.4a2.192 2.192 0 00.291-1.095v-5.644a1.1 1.1 0 012.191 0v5.646a2.192 2.192 0 00.291 1.095zm5.787 0h-1.1a1.1 1.1 0 01-1.1-1.095v-5.644a2.209 2.209 0 00-4.418 0v5.646a1.1 1.1 0 01-1.1 1.095h-1.1V29.6a.557.557 0 00-1.113 0v7.286h-5.888v-.4A1.79 1.79 0 0123.4 34.7h1.188a.556.556 0 00.547-.658l-.8-4.295a4 4 0 012.985-4.623l.2-.024v1.912a.557.557 0 001.113 0v-1.551a9.5 9.5 0 008.8.045zm4.3-7.142l-.8 4.295a.556.556 0 00.547.658h1.188a1.79 1.79 0 011.789 1.787v.4h-5.908V25.1l.2.023a4 4 0 012.986 4.623zm5.686-19.737a6.519 6.519 0 00-2.067 6.521c.183 1.053.122 1.072-.105 1.144a.409.409 0 01-.377-.072c-.815-.523-1.513-2.666-1.775-3.563a38.434 38.434 0 01-1.144-5.748.557.557 0 00-1.1.137 39.587 39.587 0 001.181 5.923 15.353 15.353 0 00.964 2.571v1.25a2.053 2.053 0 01-.605 1.462l-3.429 3.4a8.355 8.355 0 01-11.689.07l-3.585-3.469a2.056 2.056 0 01-.6-1.461v-1.253a19.388 19.388 0 001.4-4.263 38.017 38.017 0 00.952-6.827 3.65 3.65 0 01.842-2.438 2.858 2.858 0 001.465 2.073 3.071 3.071 0 002.247.213 2.014 2.014 0 011.608.141c1.114.707 1.153 3.8.9 5.865a6.636 6.636 0 00-1.556.317.556.556 0 00-.219.921l1.752 1.751V17.4a.931.931 0 01-.93.93h-1.485a.931.931 0 01-.93-.93.557.557 0 00-1.113 0 2.045 2.045 0 002.044 2.042h.928v.21a2.044 2.044 0 004.087 0v-.21h.928a2.045 2.045 0 002.043-2.042.557.557 0 00-1.113 0 .931.931 0 01-.93.93h-1.485a.931.931 0 01-.93-.93v-2.733l1.752-1.751a.556.556 0 00-.219-.916 6.631 6.631 0 00-1.507-.309c.18-1.606.426-5.633-1.425-6.808a3.069 3.069 0 00-2.4-.3 2.058 2.058 0 01-1.5-.088 1.762 1.762 0 01-.942-1.527 3.016 3.016 0 01.058-.784l.014-.039a15.834 15.834 0 0111.235 0 1.535 1.535 0 00.584.757 3.406 3.406 0 011.4 2.929.557.557 0 001.113-.021 4.475 4.475 0 00-1.888-3.827.426.426 0 01-.17-.483.438.438 0 01.406-.33c.246-.013.521-.016.817-.009C43 1.22 47.084 3.6 48.207 6.43a3.086 3.086 0 01-.784 3.579zm-14.383 3.644l-.818-.817a5.62 5.62 0 011.635 0zm.93 5.716v.287a.93.93 0 01-1.861 0v-.287a2.047 2.047 0 00.93-.566 2.047 2.047 0 00.931.566z"/><circle data-name="Эллипс 532" cx=".557" cy=".557" r=".557" transform="translate(30.204 16.061)"/><circle data-name="Эллипс 533" cx=".557" cy=".557" r=".557" transform="translate(34.758 16.061)"/></g></svg>