<svg xmlns="http://www.w3.org/2000/svg" width="35.98" height="38" viewBox="0 0 35.98 38">
  <g id="dog" transform="translate(-13.611 -0.001)">
    <path id="Контур_4212" data-name="Контур 4212" d="M198.838,109.92a.93.93,0,0,1,1.861,0,.557.557,0,0,0,1.113,0,2.044,2.044,0,0,0-4.087,0,.557.557,0,0,0,1.113,0Z" transform="translate(-170.449 -99.871)" fill="#1479ff"/>
    <path id="Контур_4213" data-name="Контур 4213" d="M299.977,107.878a2.045,2.045,0,0,0-2.044,2.042.557.557,0,0,0,1.113,0,.93.93,0,0,1,1.861,0,.557.557,0,0,0,1.113,0A2.045,2.045,0,0,0,299.977,107.878Z" transform="translate(-263.22 -99.871)" fill="#1479ff"/>
    <path id="Контур_4214" data-name="Контур 4214" d="M49.242,6.02A10,10,0,0,0,45.6,1.875,9.5,9.5,0,0,0,40.953.054c-.325-.008-.63-.005-.906.01a1.538,1.538,0,0,0-1.336.914,16.933,16.933,0,0,0-11.346,0A1.538,1.538,0,0,0,26.028.064c-.276-.015-.58-.018-.906-.01a9.5,9.5,0,0,0-4.646,1.821A10,10,0,0,0,16.834,6.02,4.165,4.165,0,0,0,17.87,10.8a7.945,7.945,0,0,1,1.1,1.337.557.557,0,0,0,.937-.6,9.056,9.056,0,0,0-1.257-1.527,3.085,3.085,0,0,1-.784-3.579c1.122-2.831,5.21-5.21,7.282-5.264.3-.008.571,0,.817.009a.438.438,0,0,1,.406.33.426.426,0,0,1-.169.479,4.476,4.476,0,0,0-1.881,3.824,36.791,36.791,0,0,1-.924,6.6c-.9,3.915-1.808,4.919-2.156,5.168a.434.434,0,0,1-.419.1c-.227-.072-.289-.091-.105-1.144a8,8,0,0,0,.141-2.429.557.557,0,0,0-1.105.133,6.972,6.972,0,0,1-.133,2.105c-.156.9-.35,2.01.866,2.4a1.5,1.5,0,0,0,.454.071,1.61,1.61,0,0,0,.95-.327q.043-.031.085-.065a3.158,3.158,0,0,0,.924,2.009l.006.006L26.5,23.9q.122.118.247.23a5.111,5.111,0,0,0-3.5,5.819l.678,3.637H23.4A2.887,2.887,0,0,0,22.1,33.9l0-.018a2.994,2.994,0,0,1-2.452-3.986,3.664,3.664,0,0,0-.227-3.175l-.006-.011-.112-.187a.557.557,0,0,0-.548-.266,5.888,5.888,0,0,0-5.142,5.71,5.515,5.515,0,0,0,1.5,4.054C16.4,37.335,18.4,38,21.059,38H45.017a.556.556,0,0,0,.557-.556v-.958a2.9,2.9,0,0,0-2.9-2.9h-.518l.678-3.637a5.111,5.111,0,0,0-3.436-5.8q.178-.16.349-.329l3.43-3.4a3.157,3.157,0,0,0,.924-2.009,2.135,2.135,0,0,0,.174.125,1.59,1.59,0,0,0,.863.267,1.493,1.493,0,0,0,.452-.071c1.215-.385,1.021-1.5.866-2.4a5.416,5.416,0,0,1,1.753-5.54A4.165,4.165,0,0,0,49.242,6.02ZM20.5,36.486v.391a6.592,6.592,0,0,1-4.593-1.634,4.429,4.429,0,0,1-1.183-3.252,4.775,4.775,0,0,1,3.807-4.571,2.557,2.557,0,0,1,.077,2.072l-.006.015a4.108,4.108,0,0,0,2.463,5.263A2.884,2.884,0,0,0,20.5,36.486Zm11.148.4a2.192,2.192,0,0,0,.291-1.095V30.147a1.1,1.1,0,0,1,2.191,0v5.646a2.192,2.192,0,0,0,.291,1.095Zm5.787,0h-1.1a1.1,1.1,0,0,1-1.1-1.095V30.147a2.209,2.209,0,0,0-4.418,0v5.646a1.1,1.1,0,0,1-1.1,1.095h-1.1V29.6a.557.557,0,0,0-1.113,0v7.286H21.616v-.4A1.79,1.79,0,0,1,23.4,34.7h1.188a.556.556,0,0,0,.547-.658l-.8-4.295a4,4,0,0,1,2.985-4.623l.2-.024v1.912a.557.557,0,0,0,1.113,0V25.461a9.5,9.5,0,0,0,8.8.045Zm4.3-7.142-.8,4.295a.556.556,0,0,0,.547.658h1.188a1.79,1.79,0,0,1,1.789,1.787v.4H38.551V25.1l.2.023A4,4,0,0,1,41.737,29.746Zm5.686-19.737a6.519,6.519,0,0,0-2.067,6.521c.183,1.053.122,1.072-.105,1.144a.409.409,0,0,1-.377-.072c-.815-.523-1.513-2.666-1.775-3.563a38.434,38.434,0,0,1-1.144-5.748.557.557,0,0,0-1.1.137,39.587,39.587,0,0,0,1.181,5.923,15.353,15.353,0,0,0,.964,2.571v1.25a2.053,2.053,0,0,1-.605,1.462l-3.429,3.4a8.355,8.355,0,0,1-11.689.07l-3.585-3.469a2.056,2.056,0,0,1-.6-1.461V16.919a19.388,19.388,0,0,0,1.4-4.263,38.017,38.017,0,0,0,.952-6.827,3.65,3.65,0,0,1,.842-2.438,2.858,2.858,0,0,0,1.465,2.073,3.071,3.071,0,0,0,2.247.213,2.014,2.014,0,0,1,1.608.141c1.114.707,1.153,3.8.9,5.865A6.636,6.636,0,0,0,30.948,12a.556.556,0,0,0-.219.921l1.752,1.751V17.4a.931.931,0,0,1-.93.93H30.066a.931.931,0,0,1-.93-.93.557.557,0,0,0-1.113,0,2.045,2.045,0,0,0,2.044,2.042h.928v.21a2.044,2.044,0,0,0,4.087,0v-.21h.928A2.045,2.045,0,0,0,38.053,17.4a.557.557,0,0,0-1.113,0,.931.931,0,0,1-.93.93H34.525a.931.931,0,0,1-.93-.93V14.667l1.752-1.751A.556.556,0,0,0,35.128,12a6.631,6.631,0,0,0-1.507-.309c.18-1.606.426-5.633-1.425-6.808a3.069,3.069,0,0,0-2.4-.3,2.058,2.058,0,0,1-1.5-.088,1.762,1.762,0,0,1-.942-1.527,3.016,3.016,0,0,1,.058-.784l.014-.039a15.834,15.834,0,0,1,11.235,0,1.535,1.535,0,0,0,.584.757,3.406,3.406,0,0,1,1.4,2.929.557.557,0,0,0,1.113-.021A4.475,4.475,0,0,0,39.87,1.983.426.426,0,0,1,39.7,1.5a.438.438,0,0,1,.406-.33c.246-.013.521-.016.817-.009C43,1.22,47.084,3.6,48.207,6.43a3.086,3.086,0,0,1-.784,3.579ZM33.038,13.651l-.818-.817a5.62,5.62,0,0,1,1.635,0Zm.93,5.716v.287a.93.93,0,0,1-1.861,0v-.287a2.047,2.047,0,0,0,.93-.566A2.047,2.047,0,0,0,33.968,19.367Z" transform="translate(0 0)" fill="#1479ff"/>
    <circle id="Эллипс_532" data-name="Эллипс 532" cx="0.557" cy="0.557" r="0.557" transform="translate(30.204 16.061)" fill="#1479ff"/>
    <circle id="Эллипс_533" data-name="Эллипс 533" cx="0.557" cy="0.557" r="0.557" transform="translate(34.758 16.061)" fill="#1479ff"/>
  </g>
</svg>
