<svg xmlns="http://www.w3.org/2000/svg" width="11.867" height="22"><path d="M3.3 12.418H.578c-.441 0-.578-.165-.578-.578V8.508c0-.441.165-.578.578-.578H3.3V5.507a6.116 6.116 0 01.743-3.111A4.569 4.569 0 016.5.358 6.126 6.126 0 018.62 0h2.7c.385 0 .551.165.551.551V3.69c0 .385-.165.551-.551.551-.743 0-1.487 0-2.23.028A.994.994 0 007.957 5.4c-.028.826 0 1.625 0 2.478h3.194c.441 0 .606.165.606.606v3.332c0 .441-.138.578-.606.578H7.957v8.976c0 .468-.138.633-.633.633H3.882c-.413 0-.578-.165-.578-.578z" fill="#1479ff"/></svg>