<svg data-name="Сгруппировать 1317" xmlns="http://www.w3.org/2000/svg" width="38" height="38"><path data-name="Контур 4205" d="M36.256 34.512h-5.047V11.848a.557.557 0 10-1.113 0v1.281H7.9V7.645h6.457v.694a.854.854 0 00.854.854h1.744v1.744a.854.854 0 00.854.854h2.375a.854.854 0 00.854-.854V9.192h1.744a.854.854 0 00.854-.854v-.693H30.1v1.823a.557.557 0 001.113 0v-2.38a.557.557 0 00-.557-.557h-3.974V.557A.557.557 0 0026.125 0h-9.593a.557.557 0 100 1.113h9.036v5.418h-1.93v-.568a.854.854 0 00-.854-.854h-1.743V3.365a.854.854 0 00-.854-.854h-2.374a.854.854 0 00-.854.854V5.11h-1.744a.854.854 0 00-.854.854v.568h-1.93V1.113h1.809a.557.557 0 100-1.113h-2.365a.557.557 0 00-.557.557v5.974h-3.97a.557.557 0 00-.557.557v27.424H1.744a1.744 1.744 0 000 3.488h5.344a.557.557 0 100-1.113H1.744a.631.631 0 010-1.262h34.512a.631.631 0 010 1.262H9.518a.557.557 0 100 1.113h26.738a1.744 1.744 0 000-3.488zM15.475 6.223h1.744a.854.854 0 00.854-.854V3.625h1.855v1.744a.854.854 0 00.854.854h1.744v1.855h-1.745a.854.854 0 00-.854.854v1.744h-1.855V8.932a.854.854 0 00-.854-.854h-1.743zm14.61 8.02v1.113H7.9v-1.114zM12.8 34.512v-3.34h1.41v3.34zm9.871-3.34v3.34h-7.345v-3.34zm1.113 3.34v-3.34H25.2v3.34zm2.523 0v-3.9a.557.557 0 00-.557-.557H12.246a.557.557 0 00-.557.557v3.9H7.9V16.469h22.2v18.043z" fill="#1479ff"/><path data-name="Контур 4206" d="M13.45 17.938h-3.163a.439.439 0 00-.439.439v2.928a.439.439 0 00.439.439h3.163a.439.439 0 00.439-.439v-2.928a.439.439 0 00-.439-.439zm-.439 2.928h-2.284v-2.05h2.284z" fill="#1479ff"/><path data-name="Контур 4207" d="M27.709 17.938h-3.163a.439.439 0 00-.439.439v2.928a.439.439 0 00.439.439h3.163a.439.439 0 00.439-.439v-2.928a.439.439 0 00-.439-.439zm-.439 2.928h-2.284v-2.05h2.284z" fill="#1479ff"/><path data-name="Контур 4208" d="M20.58 17.938h-3.163a.439.439 0 00-.439.439v2.928a.439.439 0 00.439.439h3.163a.439.439 0 00.439-.439v-2.928a.439.439 0 00-.439-.439zm-.439 2.928h-2.284v-2.05h2.284z" fill="#1479ff"/><path data-name="Контур 4209" d="M13.45 24.593h-3.163a.439.439 0 00-.439.439v2.928a.439.439 0 00.439.439h3.163a.439.439 0 00.439-.439v-2.928a.439.439 0 00-.439-.439zm-.439 2.928h-2.284v-2.05h2.284z" fill="#1479ff"/><path data-name="Контур 4210" d="M27.709 24.593h-3.163a.439.439 0 00-.439.439v2.928a.439.439 0 00.439.439h3.163a.439.439 0 00.439-.439v-2.928a.439.439 0 00-.439-.439zm-.439 2.928h-2.284v-2.05h2.284z" fill="#1479ff"/><path data-name="Контур 4211" d="M20.58 24.593h-3.163a.439.439 0 00-.439.439v2.928a.439.439 0 00.439.439h3.163a.439.439 0 00.439-.439v-2.928a.439.439 0 00-.439-.439zm-.439 2.928h-2.284v-2.05h2.284z" fill="#1479ff"/></svg>