<svg id="Сгруппировать_1317" data-name="Сгруппировать 1317" xmlns="http://www.w3.org/2000/svg" width="38" height="38" viewBox="0 0 38 38">
  <path id="Контур_4205" data-name="Контур 4205" d="M36.256,34.512H31.209V11.848a.557.557,0,1,0-1.113,0v1.281H7.9V7.645h6.457v.694a.854.854,0,0,0,.854.854h1.744v1.744a.854.854,0,0,0,.854.854h2.375a.854.854,0,0,0,.854-.854V9.192h1.744a.854.854,0,0,0,.854-.854V7.645H30.1V9.468a.557.557,0,0,0,1.113,0V7.088a.557.557,0,0,0-.557-.557H26.682V.557A.557.557,0,0,0,26.125,0H16.532a.557.557,0,1,0,0,1.113h9.036V6.531h-1.93V5.963a.854.854,0,0,0-.854-.854H21.041V3.365a.854.854,0,0,0-.854-.854H17.813a.854.854,0,0,0-.854.854V5.11H15.215a.854.854,0,0,0-.854.854v.568h-1.93V1.113H14.24A.557.557,0,1,0,14.24,0H11.875a.557.557,0,0,0-.557.557V6.531H7.348a.557.557,0,0,0-.557.557V34.512H1.744a1.744,1.744,0,0,0,0,3.488H7.088a.557.557,0,1,0,0-1.113H1.744a.631.631,0,0,1,0-1.262H36.256a.631.631,0,0,1,0,1.262H9.518a.557.557,0,1,0,0,1.113H36.256a1.744,1.744,0,0,0,0-3.488ZM15.475,6.223h1.744a.854.854,0,0,0,.854-.854V3.625h1.855V5.369a.854.854,0,0,0,.854.854h1.744V8.078H20.781a.854.854,0,0,0-.854.854v1.744H18.072V8.932a.854.854,0,0,0-.854-.854H15.475Zm14.61,8.02v1.113H7.9V14.242ZM12.8,34.512v-3.34h1.41v3.34Zm9.871-3.34v3.34H15.326v-3.34Zm1.113,3.34v-3.34H25.2v3.34Zm2.523,0v-3.9a.557.557,0,0,0-.557-.557H12.246a.557.557,0,0,0-.557.557v3.9H7.9V16.469H30.1V34.512Z" transform="translate(0 0)" fill="#1479ff"/>
  <path id="Контур_4206" data-name="Контур 4206" d="M132.1,234.5h-3.163a.439.439,0,0,0-.439.439v2.928a.439.439,0,0,0,.439.439H132.1a.439.439,0,0,0,.439-.439v-2.928A.439.439,0,0,0,132.1,234.5Zm-.439,2.928h-2.284v-2.05h2.284Z" transform="translate(-118.65 -216.562)" fill="#1479ff"/>
  <path id="Контур_4207" data-name="Контур 4207" d="M318.1,234.5h-3.163a.439.439,0,0,0-.439.439v2.928a.439.439,0,0,0,.439.439H318.1a.439.439,0,0,0,.439-.439v-2.928A.439.439,0,0,0,318.1,234.5Zm-.439,2.928h-2.284v-2.05h2.284Z" transform="translate(-290.391 -216.562)" fill="#1479ff"/>
  <path id="Контур_4208" data-name="Контур 4208" d="M225.1,234.5h-3.163a.439.439,0,0,0-.439.439v2.928a.439.439,0,0,0,.439.439H225.1a.439.439,0,0,0,.439-.439v-2.928A.439.439,0,0,0,225.1,234.5Zm-.439,2.928h-2.284v-2.05h2.284Z" transform="translate(-204.52 -216.562)" fill="#1479ff"/>
  <path id="Контур_4209" data-name="Контур 4209" d="M132.1,321.5h-3.163a.439.439,0,0,0-.439.439v2.928a.439.439,0,0,0,.439.439H132.1a.439.439,0,0,0,.439-.439v-2.928A.439.439,0,0,0,132.1,321.5Zm-.439,2.928h-2.284v-2.05h2.284Z" transform="translate(-118.65 -296.907)" fill="#1479ff"/>
  <path id="Контур_4210" data-name="Контур 4210" d="M318.1,321.5h-3.163a.439.439,0,0,0-.439.439v2.928a.439.439,0,0,0,.439.439H318.1a.439.439,0,0,0,.439-.439v-2.928A.439.439,0,0,0,318.1,321.5Zm-.439,2.928h-2.284v-2.05h2.284Z" transform="translate(-290.391 -296.907)" fill="#1479ff"/>
  <path id="Контур_4211" data-name="Контур 4211" d="M225.1,321.5h-3.163a.439.439,0,0,0-.439.439v2.928a.439.439,0,0,0,.439.439H225.1a.439.439,0,0,0,.439-.439v-2.928A.439.439,0,0,0,225.1,321.5Zm-.439,2.928h-2.284v-2.05h2.284Z" transform="translate(-204.52 -296.907)" fill="#1479ff"/>
</svg>
