<svg xmlns="http://www.w3.org/2000/svg" width="40" height="32.485"><g data-name="Сгруппировать 1309"><g data-name="Сгруппировать 1308"><path data-name="Контур 4203" d="M38.162 31.313h-.667V13.93A5.439 5.439 0 0040 9.354a.586.586 0 00-.077-.291L35.274.926a1.843 1.843 0 00-1.6-.926H6.323a1.843 1.843 0 00-1.6.926L.077 9.063A.587.587 0 000 9.354a5.439 5.439 0 002.5 4.576v17.383h-.662a.586.586 0 000 1.172h36.324a.586.586 0 100-1.172zM1.212 9.94h1.879a.586.586 0 000-1.172H1.6l4.144-7.264a.668.668 0 01.579-.336h27.354a.668.668 0 01.579.336l4.148 7.26h-1.5a.586.586 0 000 1.172h1.879a4.267 4.267 0 01-8.454 0H34.4a.586.586 0 000-1.172H5.6a.586.586 0 000 1.172h4.07a4.267 4.267 0 01-8.454 0zm27.868 0a4.267 4.267 0 01-8.453 0zm-9.707 0a4.267 4.267 0 01-8.453 0zm13.819 21.373h-6.343v-1.959h6.343zm0-3.131h-6.343V17.455h6.343zm3.131 3.131h-1.959V16.869a.586.586 0 00-.586-.586h-7.515a.586.586 0 00-.586.586v14.444h-22V14.498a5.434 5.434 0 006.616-2.69A5.438 5.438 0 0020 11.804a5.438 5.438 0 009.707 0 5.434 5.434 0 006.616 2.69z" fill="#1479ff"/></g></g><g data-name="Сгруппировать 1311"><g data-name="Сгруппировать 1310"><path data-name="Контур 4204" d="M23.131 16.283H6.222a.586.586 0 00-.586.586v11.898a.586.586 0 00.586.586h16.909a.586.586 0 00.586-.586v-11.9a.586.586 0 00-.586-.584zm-.586 11.9H6.808V17.455h15.737z" fill="#1479ff"/></g></g></svg>