<svg xmlns="http://www.w3.org/2000/svg" width="40" height="32.485" viewBox="0 0 40 32.485">
  <g id="shop" transform="translate(0 -48.096)">
    <g id="Сгруппировать_1309" data-name="Сгруппировать 1309" transform="translate(0 48.096)">
      <g id="Сгруппировать_1308" data-name="Сгруппировать 1308">
        <path id="Контур_4203" data-name="Контур 4203" d="M38.162,79.409h-.667V62.026A5.439,5.439,0,0,0,40,57.45a.586.586,0,0,0-.077-.291l-4.649-8.137a1.843,1.843,0,0,0-1.6-.926H6.323a1.843,1.843,0,0,0-1.6.926L.077,57.159A.587.587,0,0,0,0,57.45a5.439,5.439,0,0,0,2.5,4.576V79.409H1.838a.586.586,0,0,0,0,1.172H38.162a.586.586,0,1,0,0-1.172ZM1.212,58.036H3.091a.586.586,0,0,0,0-1.172H1.6L5.744,49.6a.668.668,0,0,1,.579-.336H33.677a.668.668,0,0,1,.579.336l4.148,7.26h-1.5a.586.586,0,0,0,0,1.172h1.879a4.267,4.267,0,0,1-8.454,0H34.4a.586.586,0,0,0,0-1.172H5.6a.586.586,0,0,0,0,1.172h4.07a4.267,4.267,0,0,1-8.454,0Zm27.868,0a4.267,4.267,0,0,1-8.453,0Zm-9.707,0a4.267,4.267,0,0,1-8.453,0ZM33.192,79.409H26.849V77.45h6.343Zm0-3.131H26.849V65.551h6.343Zm3.131,3.131H34.364V64.965a.586.586,0,0,0-.586-.586H26.263a.586.586,0,0,0-.586.586V79.409h-22V62.594a5.434,5.434,0,0,0,6.616-2.69A5.438,5.438,0,0,0,20,59.9a5.438,5.438,0,0,0,9.707,0,5.434,5.434,0,0,0,6.616,2.69Z" transform="translate(0 -48.096)" fill="#1479ff"/>
      </g>
    </g>
    <g id="Сгруппировать_1311" data-name="Сгруппировать 1311" transform="translate(5.636 64.379)">
      <g id="Сгруппировать_1310" data-name="Сгруппировать 1310">
        <path id="Контур_4204" data-name="Контур 4204" d="M89.64,256.516H72.731a.586.586,0,0,0-.586.586V269a.586.586,0,0,0,.586.586H89.64a.586.586,0,0,0,.586-.586V257.1A.586.586,0,0,0,89.64,256.516Zm-.586,11.9H73.317V257.688H89.054Z" transform="translate(-72.145 -256.516)" fill="#1479ff"/>
      </g>
    </g>
  </g>
</svg>
