<svg xmlns="http://www.w3.org/2000/svg" width="22" height="22.046" viewBox="0 0 22 22.046">
  <path id="Контур_4216" data-name="Контур 4216" d="M21.962,16.18,18.886,13.1a2.046,2.046,0,0,0-3.406.769,2.094,2.094,0,0,1-2.417,1.319c-2.2-.549-5.164-3.406-5.714-5.714A1.991,1.991,0,0,1,8.667,7.06a2.046,2.046,0,0,0,.769-3.406L6.359.577a2.195,2.195,0,0,0-2.967,0L1.3,2.665c-2.088,2.2.22,8.021,5.384,13.186s10.988,7.582,13.186,5.384l2.088-2.088A2.194,2.194,0,0,0,21.962,16.18Z" transform="translate(-0.539 0)" fill="#1479ff"/>
</svg>
