<?xml version="1.0" encoding="UTF-8"?>
<svg viewBox="0 0 80 80" xmlns="http://www.w3.org/2000/svg">
<path d="m73.333 45.333c0.7373 0 1.3333-0.5974 1.3333-1.3333v-5.3333c0-0.7359-0.596-1.3333-1.3333-1.3333h-6.6667v-1.3334c0-0.7359-0.596-1.3333-1.3333-1.3333-0.7374 0-1.3333 0.5974-1.3333 1.3333v1.3333h-37.333v-1.3333c0-0.7359-0.5973-1.3333-1.3333-1.3333-0.7359 0-1.3332 0.5974-1.3332 1.3333v1.3333h-6.6668c-0.7359 0-1.3332 0.5973-1.3332 1.3333v5.3334c0 0.7359 0.5973 1.3333 1.3332 1.3333h56zm-54.667-2.6666v-2.6667h53.333v2.6667h-53.333z" fill="#D4C17F"/>
<path d="m48 29.333c-2.156 0-3.5494 1.6386-3.7014 1.8267-0.4614 0.5667-0.376 1.3947 0.1879 1.8614 0.5654 0.468 1.4015 0.3867 1.8747-0.1706 0.0053-0.0094 0.728-0.8506 1.6386-0.8506 0.9107 0 1.6321 0.8414 1.6321 0.8414 0.264 0.324 0.6479 0.492 1.0359 0.492 0.2959 0 0.592-0.0974 0.84-0.2986 0.572-0.4641 0.6573-1.3041 0.1933-1.8747-0.1517-0.1883-1.5452-1.827-3.7011-1.827z" fill="#D4C17F"/>
<path d="m73.333 56c0.7373 0 1.3333-0.5973 1.3333-1.3333v-5.3333c0-0.7359-0.596-1.3332-1.3333-1.3332h-6.6667v-1.3333c0-0.736-0.596-1.3333-1.3333-1.3333-0.7374 0-1.3333 0.5973-1.3333 1.3333v1.3333h-37.333v-1.3333c0-0.736-0.5973-1.3333-1.3333-1.3333-0.7359 0-1.3332 0.5973-1.3332 1.3333v1.3333h-6.6668c-0.7359 0-1.3332 0.5973-1.3332 1.3332v5.3333c0 0.736 0.5973 1.3333 1.3332 1.3333h56zm-54.667-2.6667v-2.6667h53.333v2.6667h-53.333z" fill="#D4C17F"/>
<path d="m54.965 26.173c0.2641 0.3253 0.648 0.4933 1.0359 0.4933 0.296 0 0.5921-0.0974 0.84-0.2986 0.5721-0.4641 0.6574-1.3041 0.1933-1.8747-0.152-0.188-1.5453-1.8267-3.7014-1.8267s-3.5494 1.6386-3.7014 1.8267c-0.4614 0.5667-0.3759 1.3947 0.188 1.8614 0.5653 0.4694 1.4014 0.3867 1.8733-0.1706 0.0067-0.0094 0.7293-0.8507 1.64-0.8507 0.9111-1e-4 1.6323 0.8399 1.6323 0.8399z" fill="#D4C17F"/>
<path d="m1.3401 17.467c0.06796 0.6814 0.6414 1.2 1.3267 1.2h8c0.6853 0 1.2586-0.5186 1.3267-1.2l1.3333-13.333c0.0373-0.37594-0.0853-0.74797-0.3386-1.028-0.252-0.27875-0.6106-0.43859-0.988-0.43859h-4.0001v-1.3336c0-0.73594-0.59735-1.3333-1.3333-1.3333-0.73593 0-1.3333 0.59734-1.3333 1.3333v1.3333h-4c-0.37734 0-0.73593 0.16-0.98797 0.4386-0.25328 0.28-0.37594 0.65203-0.33859 1.028l1.3331 13.334zm9.1867-12.133-1.0667 10.667h-5.5867l-1.0667-10.667h7.7202z" fill="#D4C17F"/>
<path d="m37.333 30.667c0 1.4906 0.6093 2.8774 1.7159 3.9027 0.2559 0.2373 0.5814 0.3559 0.9067 0.3559 0.3574 0 0.7147-0.144 0.9774-0.4267 0.5-0.54 0.4693-1.3841-0.0707-1.8853-0.5573-0.5147-0.8626-1.2067-0.8626-1.9467 0-1.1041 0.7026-2.1053 1.7506-2.4907 0.4347-0.16 0.7547-0.5346 0.8453-0.9893 0.092-0.4547-0.0614-0.9241-0.4-1.24-0.5573-0.5147-0.8626-1.2068-0.8626-1.9468 0-1.3867 1.092-2.5467 2.4853-2.6426 0.512-0.0347 0.9573-0.3586 1.1479-0.8347 0.1894-0.4759 0.0907-1.0186-0.2559-1.3959-0.4586-0.5-0.7106-1.1374-0.7106-1.7933 0-1.3867 1.092-2.5467 2.4853-2.6427 0.512-0.0347 0.9573-0.3586 1.148-0.8347 0.1893-0.4759 0.0906-1.0186-0.256-1.3959-0.4573-0.5-0.7106-1.1373-0.7106-1.7933 0-1.192 0.812-2.244 1.9733-2.5586 0.3693-0.1 0.6759-0.35204 0.8453-0.69204 0.1706-0.34 0.1867-0.73859 0.044-1.0906-0.1293-0.32672-0.1959-0.66-0.1959-0.99203 0-1.4706 1.1959-2.6667 2.6667-2.6667 1.4707 0 2.6668 1.1959 2.6668 2.6667 0 0.33203-0.0668 0.66531-0.196 0.99203-0.1426 0.35203-0.1267 0.75062 0.0441 1.0906 0.1693 0.34 0.4759 0.59204 0.8453 0.69204 1.1614 0.31468 1.9733 1.3667 1.9733 2.5586 0 0.656-0.2533 1.2933-0.7107 1.7933-0.3467 0.3773-0.4453 0.92-0.2559 1.3959 0.1906 0.476 0.6359 0.8 1.148 0.8347 1.3933 0.096 2.4853 1.256 2.4853 2.6427 0 0.6559-0.2533 1.2933-0.7106 1.7933-0.3468 0.3773-0.4453 0.92-0.256 1.3959 0.1907 0.4759 0.636 0.8 1.148 0.8347 1.3933 0.0959 2.4853 1.2559 2.4853 2.6426 0 0.74-0.3053 1.4321-0.8626 1.9468-0.3386 0.3159-0.4921 0.7853-0.4 1.24 0.0906 0.4547 0.4106 0.8293 0.8467 0.9893 1.0467 0.3854 1.7493 1.3868 1.7493 2.4907 0 0.7359 0.596 1.3332 1.3333 1.3332 0.7374 0 1.3333-0.5973 1.3333-1.3332 0-1.6241-0.7533-3.1347-1.9786-4.1294 0.4214-0.7694 0.6453-1.6347 0.6453-2.5374 0-2.0853-1.2267-3.9173-3.0159-4.784 0.2294-0.5974 0.3494-1.2347 0.3494-1.8827 0-2.0853-1.2268-3.9173-3.016-4.784 0.2294-0.5974 0.3494-1.2347 0.3494-1.8827 0-1.9441-1.0694-3.7-2.7147-4.6294 0.032-0.23328 0.048-0.46797 0.048-0.70406-6e-4 -2.9409-2.3925-5.333-5.3339-5.333s-5.3333 2.392-5.3333 5.3333c0 0.23594 0.0159 0.47063 0.048 0.70406-1.6454 0.92938-2.7147 2.6853-2.7147 4.6294 0 0.648 0.12 1.2853 0.3493 1.8827-1.7893 0.8667-3.0159 2.6986-3.0159 4.784 0 0.648 0.12 1.2854 0.3494 1.8827-1.7894 0.8667-3.016 2.6986-3.016 4.7841 0 0.9026 0.2241 1.7679 0.6454 2.5373-1.2255 0.9945-1.9789 2.5052-1.9789 4.1292z" fill="#D4C17F"/>
<path d="m50.159 18.561c0.6774 0.28 1.4574-0.0427 1.7414-0.72 0.0254-0.0641 0.0627-0.1347 0.1-0.2041 0.0374 0.0668 0.0721 0.136 0.0974 0.1986 0.2106 0.5174 0.7094 0.8321 1.2359 0.8321 0.168 0 0.3374-0.0321 0.5013-0.1 0.6826-0.276 1.012-1.0547 0.7347-1.736-0.148-0.3614-0.9613-2.1653-2.5694-2.1653-1.608 0-2.4214 1.8041-2.5694 2.1653-0.2759 0.6786 0.0508 1.4494 0.7281 1.7294z" fill="#D4C17F"/>
<path d="m78.667 77.333h-21.333c-0.7374 0-1.3333 0.5973-1.3333 1.3333 0 0.7359 0.5959 1.3332 1.3333 1.3332h21.333c0.7373 0 1.3332-0.5973 1.3332-1.3332 0-0.736-0.5957-1.3333-1.3331-1.3333z" fill="#D4C17F"/>
<path d="m78.667 58.667h-12v-1.3333c0-0.7359-0.5959-1.3332-1.3333-1.3332-0.7373 0-1.3332 0.5973-1.3332 1.3332v1.3333h-37.334v-1.3333c0-0.7359-0.5973-1.3332-1.3333-1.3332-0.7359 0-1.3332 0.5973-1.3332 1.3332v1.3333h-12c-0.7359 0-1.3333 0.5974-1.3333 1.3333v5.3333c0 0.7359 0.5974 1.3333 1.3333 1.3333h4v6.6667c0 0.7359 0.5973 1.3333 1.3333 1.3333 0.7359 0 1.3333-0.5974 1.3333-1.3333v-6.6667h53.333v6.6667c0 0.7359 0.5959 1.3333 1.3333 1.3333 0.7373 0 1.3333-0.5974 1.3333-1.3333v-6.6667h4c0.7373 0 1.3332-0.5974 1.3332-1.3333v-5.3333c2e-4 -0.7359-0.5957-1.3333-1.3331-1.3333zm-1.3334 5.3333h-64v-2.6667h64v2.6667z" fill="#D4C17F"/>
<path d="m20 77.333h-12v-54.667c0-0.7359-0.59735-1.3333-1.3333-1.3333-0.73594 0-1.3333 0.5974-1.3333 1.3333v54.667h-4c-0.73593 0-1.3333 0.5974-1.3333 1.3333 0 0.736 0.59719 1.3333 1.3331 1.3333h18.667c0.7359 0 1.3333-0.5973 1.3333-1.3333 0-0.7359-0.5974-1.3334-1.3333-1.3334z" fill="#D4C17F"/>
<path d="m52 77.333h-2.6667c-0.7374 0-1.3333 0.5973-1.3333 1.3333 0 0.7359 0.5959 1.3332 1.3333 1.3332h2.6667c0.7373 0 1.3333-0.5973 1.3333-1.3332 0-0.736-0.596-1.3333-1.3333-1.3333z" fill="#D4C17F"/>
<path d="m41.333 77.333h-13.333c-0.7359 0-1.3333 0.5973-1.3333 1.3333 0 0.7359 0.5974 1.3334 1.3333 1.3334h13.333c0.7373 0 1.3333-0.5973 1.3333-1.3333 0-0.7359-0.596-1.3334-1.3333-1.3334z" fill="#D4C17F"/>
</svg>
