<?xml version="1.0" encoding="UTF-8"?>
<svg fill="none" viewBox="0 0 88 80" xmlns="http://www.w3.org/2000/svg">
<g fill="#D4C17F" filter="url(#a)">
<path d="m24 68.001h-18.667c-0.73734 0-1.3333 0.5973-1.3333 1.3333 0 0.7359 0.59594 1.3332 1.3333 1.3332h18.667c0.7373 0 1.3333-0.5973 1.3333-1.3332 0-0.736-0.596-1.3333-1.3333-1.3333z"/>
<path d="m20 65.332c8.8226 0 16-7.1787 16-16 0-4.4173-1.7614-8.5306-4.96-11.583-0.5306-0.5068-1.3774-0.4868-1.8853 0.044-0.508 0.5333-0.488 1.3774 0.044 1.8853 2.6654 2.5441 4.1347 5.9707 4.1347 9.6533 0 7.352-5.9814 13.333-13.333 13.333-7.3518 0-13.333-5.9814-13.333-13.333 0-7.3533 5.9814-13.333 13.333-13.333 0.7374 0 1.3333-0.5973 1.3333-1.3333 0-0.7373-0.5959-1.3332-1.3333-1.3332-8.8226 0-16 7.1773-16 16-1.5e-4 8.8211 7.1772 16 16 16z"/>
<path d="m26.667 27.998h0.676l-7.7027 18.703c-1.2986 0.1774-2.3067 1.2827-2.3067 2.6307 0 1.4706 1.1959 2.6667 2.6667 2.6667 1.4706 0 2.6667-1.196 2.6667-2.6667 0-0.6107-0.2133-1.1653-0.56-1.616l7.5241-18.269 8.4387 12.252c0.416 0.6067 1.2441 0.7612 1.8533 0.3426 0.608-0.4186 0.76-1.2479 0.3414-1.8547l-8.3947-12.188h2.7974c2.2053 0 4-1.7947 4-4 0-2.2067-1.7947-4-4-4h-8c-0.7374 0-1.3333 0.5959-1.3333 1.3333v5.3332c-3e-4 0.7363 0.5958 1.3335 1.3331 1.3335zm1.3333-5.3333h6.6667c0.736 0 1.3333 0.5973 1.3333 1.3333 0 0.7347-0.5973 1.3333-1.3333 1.3333h-6.6667v-2.6666z"/>
<path d="m66.667 34.665c0 0.7359 0.596 1.3333 1.3333 1.3333 7.352 0 13.333 5.98 13.333 13.333 0 7.352-5.9814 13.333-13.333 13.333s-13.333-5.9814-13.333-13.333c0-3.996 1.7694-7.7468 4.8574-10.293 0.5667-0.468 0.6479-1.308 0.1786-1.876-0.468-0.5667-1.3068-0.6506-1.8774-0.1812-3.7014 3.0547-5.8253 7.5547-5.8253 12.351 0 8.8213 7.1773 16 16 16s16-7.1787 16-16c0-8.8226-7.1773-16-16-16-0.7373 0-1.3333 0.5959-1.3333 1.3333z"/>
<path d="m45.333 68.001h-13.333c-0.7373 0-1.3333 0.5973-1.3333 1.3333 0 0.7359 0.596 1.3332 1.3333 1.3332h13.333c0.7373 0 1.3333-0.5973 1.3333-1.3332 1e-4 -0.736-0.596-1.3333-1.3333-1.3333z"/>
<path d="m45.333 42.854v-4.1894c0.7373 0 1.3333-0.5973 1.3333-1.3333 0-0.7373-0.596-1.3333-1.3333-1.3333h-2.6667c-0.7374 0-1.3333 0.596-1.3333 1.3333 0 0.736 0.5959 1.3333 1.3333 1.3333v4.1894c-2.2947 0.5959-4 2.6653-4 5.144 0 2.4774 1.7053 4.5468 4 5.1441v4.1894c-0.7374 0-1.3333 0.5959-1.3333 1.3333 0 0.7359 0.5959 1.3332 1.3333 1.3332h2.6667c0.7373 0 1.3333-0.5973 1.3333-1.3332 0-0.7374-0.596-1.3333-1.3333-1.3333v-4.1894c2.2947-0.5973 4-2.6667 4-5.1441 0-2.4787-1.7053-4.5481-4-5.144zm-1.3333 7.8106c-1.4694 0-2.6667-1.1959-2.6667-2.6667 0-1.4706 1.1973-2.6667 2.6667-2.6667 1.4706 0 2.6667 1.1959 2.6667 2.6667s-1.1961 2.6667-2.6667 2.6667z"/>
<path d="m65.945 47.652c-0.3759 0.46-0.612 1.04-0.612 1.68 0 1.4706 1.1973 2.6667 2.6667 2.6667s2.6667-1.1959 2.6667-2.6667c0-1.32-0.9667-2.4106-2.2253-2.6226l-6.0174-16.044h9.5186c1.596 0 2.5241-1.2759 2.6986-2.4053l1.3321-6.6667c0.0786-0.3921-0.0227-0.7986-0.276-1.1068-0.2533-0.3093-0.6306-0.4879-1.0306-0.4879h-12c-0.7373 0-1.3333 0.5959-1.3333 1.3333 0 0.7359 0.596 1.3332 1.3333 1.3332h10.373l-1.0186 5.1014c-0.02 0.0921-0.0774 0.2214-0.0786 0.2321h-10.519l-4.1747-11.135c-0.0026-0.0053-0.0067-8e-3 -0.0079-0.0133-0.0027-0.0053-0.0015-0.0106-0.0027-0.0147l-2.6667-6.6667c-0.2733-0.68406-1.056-1.012-1.7333-0.74266-0.6841 0.27328-1.0173 1.0494-0.7441 1.7333l2.4294 6.068-5.0147 8.7759c-0.3667 0.6388-0.144 1.4533 0.496 1.8188 0.2079 0.1186 0.4359 0.1759 0.66 0.1759 0.464 0 0.9132-0.2412 1.1586-0.672l3.9253-6.868 3.2079 8.556-10.161 11.431c-0.4906 0.5506-0.44 1.3933 0.1107 1.8826 0.2532 0.2268 0.5693 0.3374 0.8853 0.3374 0.3667 0 0.7332-0.152 0.9959-0.448l9.228-10.38 5.9295 15.815z"/>
<path d="m82.667 68.001h-21.333c-0.7374 0-1.3333 0.5973-1.3333 1.3333 0 0.7359 0.5959 1.3332 1.3333 1.3332h21.333c0.7373 0 1.3332-0.5973 1.3332-1.3332 2e-4 -0.736-0.5957-1.3333-1.3331-1.3333z"/>
<path d="m56 68.001h-2.6667c-0.7374 0-1.3333 0.5973-1.3333 1.3333 0 0.7359 0.5959 1.3332 1.3333 1.3332h2.6667c0.7373 0 1.3333-0.5973 1.3333-1.3332 0-0.736-0.596-1.3333-1.3333-1.3333z"/>
</g>
<defs>
<filter id="a" x="0" y="0" width="88" height="88" color-interpolation-filters="sRGB" filterUnits="userSpaceOnUse">
<feFlood flood-opacity="0" result="BackgroundImageFix"/>
<feColorMatrix in="SourceAlpha" values="0 0 0 0 0 0 0 0 0 0 0 0 0 0 0 0 0 0 127 0"/>
<feOffset dy="4"/>
<feGaussianBlur stdDeviation="2"/>
<feColorMatrix values="0 0 0 0 0 0 0 0 0 0 0 0 0 0 0 0 0 0 0.25 0"/>
<feBlend in2="BackgroundImageFix" result="effect1_dropShadow"/>
<feBlend in="SourceGraphic" in2="effect1_dropShadow" result="shape"/>
</filter>
</defs>
</svg>
