<?xml version="1.0" encoding="UTF-8"?>
<svg viewBox="0 0 80 80" xmlns="http://www.w3.org/2000/svg">
<path d="m57.333 74.667h-37.333c-0.7359 0-1.3333 0.5974-1.3333 1.3333v2.6667c0 0.736 0.5974 1.3333 1.3333 1.3333s1.3333-0.5973 1.3333-1.3333v-1.3333h36c0.7359 0 1.3333-0.5973 1.3333-1.3332 0-0.736-0.5972-1.3335-1.3333-1.3335z" fill="#D4C17F"/>
<path d="m29.333 33.333c0 0.7359 0.5973 1.3333 1.3333 1.3333h5.3334c0.7359 0 1.3333-0.5974 1.3333-1.3333v-8c0-0.736-0.5974-1.3333-1.3333-1.3333h-5.3333c-0.7359 0-1.3333 0.5973-1.3333 1.3333v8h-1e-4zm2.6667-6.6666h2.6667v5.3333h-2.6667v-5.3333z" fill="#D4C17F"/>
<path d="m17.333 16h-16c-0.73594 0-1.3333 0.5973-1.3333 1.3333v26.667c0 0.7359 0.59734 1.3333 1.3333 1.3333 0.73594 0 1.3333-0.5974 1.3333-1.3333v-25.333h14.667c0.7359 0 1.3333-0.5973 1.3333-1.3333 0-0.7359-0.5972-1.3334-1.3333-1.3334z" fill="#D4C17F"/>
<path d="m64 65.333c0 0.7359 0.5973 1.3333 1.3333 1.3333h5.3333c0.7359 0 1.3332-0.5974 1.3332-1.3333v-8c0-0.736-0.5973-1.3333-1.3332-1.3333h-5.3333c-0.736 0-1.3333 0.5973-1.3333 1.3333v8zm2.6667-6.6666h2.6667v5.3333h-2.6667v-5.3333z" fill="#D4C17F"/>
<path d="m6.6667 48c-6.5908 0-6.6667 17.16-6.6667 17.333 0 3.22 2.2947 5.912 5.3333 6.532v6.8014c0 0.736 0.59734 1.3333 1.3333 1.3333s1.3333-0.5973 1.3333-1.3333v-6.8014c3.0386-0.62 5.3333-3.312 5.3333-6.532 2e-4 -0.1733-0.0758-17.333-6.6664-17.333zm0 21.333c-2.2053 0-4-1.7947-4-4 0-6.6427 1.7841-14.667 4-14.667s4 8.024 4 14.667c0 2.2053-1.7947 4-4 4z" fill="#D4C17F"/>
<path d="m14.667 40h-5.3334c-0.73594 0-1.3333 0.5973-1.3333 1.3333v2.6667c0 0.7359 0.59734 1.3333 1.3333 1.3333 0.73592 0 1.3333-0.5974 1.3333-1.3333v-1.3333h2.6667v6.6667c0 0.736 0.5973 1.3333 1.3333 1.3333 0.7359 0 1.3332-0.5973 1.3332-1.3333v-8c2e-4 -0.7361-0.5971-1.3334-1.3331-1.3334z" fill="#D4C17F"/>
<path d="m65.333 34.667h5.3333c0.7359 0 1.3332-0.5973 1.3332-1.3333v-8c0-0.7359-0.5973-1.3332-1.3332-1.3332h-5.3333c-0.736 0-1.3333 0.5973-1.3333 1.3332v8c0 0.736 0.5973 1.3333 1.3333 1.3333zm1.3334-8h2.6667v5.3333h-2.6667v-5.3333z" fill="#D4C17F"/>
<path d="m14.667 24h-5.3334c-0.73594 0-1.3333 0.5973-1.3333 1.3333v8c0 0.7359 0.59734 1.3333 1.3333 1.3333h5.3333c0.7359 0 1.3332-0.5974 1.3332-1.3333v-8c2e-4 -0.736-0.5971-1.3333-1.3331-1.3333zm-1.3334 8h-2.6666v-5.3333h2.6667v5.3333h-1e-4z" fill="#D4C17F"/>
<path d="m42.667 33.333c0 0.7359 0.5974 1.3333 1.3333 1.3333h5.3333c0.7359 0 1.3333-0.5974 1.3333-1.3333v-8c0-0.736-0.5974-1.3333-1.3333-1.3333h-5.3333c-0.7359 0-1.3333 0.5973-1.3333 1.3333v8zm2.6666-6.6666h2.6667v5.3333h-2.6667v-5.3333z" fill="#D4C17F"/>
<path d="m78.667 16h-16c-0.7359 0-1.3333 0.5973-1.3333 1.3333 0 0.7359 0.5974 1.3333 1.3333 1.3333h14.667v53.579c-0.4186-0.1494-0.8626-0.2453-1.3332-0.2453-0.2307 0-0.46 0.02-0.6854 0.06-0.92-1.6573-2.6706-2.7267-4.6479-2.7267-1.9774 0-3.728 1.0694-4.648 2.7267-0.2253-0.04-0.4547-0.06-0.6853-0.06-2.2053 0-4 1.7947-4 4s1.7947 4 4 4h10.666c2.2053 0 4-1.7947 4-4v-58.667c0-0.736-0.5973-1.3333-1.3333-1.3333zm-2.6667 61.333h-10.667c-0.7347 0-1.3333-0.5986-1.3333-1.3333s0.5986-1.3333 1.3333-1.3333c0.2559 0 0.4986 0.0733 0.7226 0.2174 0.3653 0.2346 0.8214 0.2773 1.2241 0.1146 0.4027-0.1626 0.7-0.512 0.7973-0.9346 0.2814-1.2147 1.3468-2.0641 2.5894-2.0641 1.2427 0 2.308 0.8494 2.5894 2.0641 0.0973 0.4226 0.3947 0.772 0.7973 0.9346 0.4014 0.1627 0.8586 0.12 1.2241-0.1146 0.868-0.56 2.0559 0.1253 2.0559 1.1159-1e-4 0.7347-0.5987 1.3333-1.3334 1.3333z" fill="#D4C17F"/>
<path d="m44 18.667h5.3333c0.7359 0 1.3333-0.5973 1.3333-1.3333v-8c0-0.73593-0.5974-1.3333-1.3333-1.3333h-5.3333c-0.7359 0-1.3333 0.59735-1.3333 1.3333v8c0 0.736 0.5974 1.3333 1.3333 1.3333zm1.3333-8h2.6667v5.3333h-2.6667v-5.3333z" fill="#D4C17F"/>
<path d="m42.667 49.333c0 0.7359 0.5974 1.3333 1.3333 1.3333h5.3333c0.7359 0 1.3333-0.5974 1.3333-1.3333v-8c0-0.736-0.5974-1.3333-1.3333-1.3333h-5.3333c-0.7359 0-1.3333 0.5973-1.3333 1.3333v8zm2.6666-6.6666h2.6667v5.3333h-2.6667v-5.3333z" fill="#D4C17F"/>
<path d="m30.667 18.667h5.3333c0.7359 0 1.3333-0.5973 1.3333-1.3333v-8c0-0.73593-0.5974-1.3333-1.3333-1.3333h-5.3333c-0.7359 0-1.3333 0.59735-1.3333 1.3333v8c-1e-4 0.736 0.5972 1.3333 1.3333 1.3333zm1.3333-8h2.6667v5.3333h-2.6667v-5.3333z" fill="#D4C17F"/>
<path d="m39.053 64.387c-0.24 0.2533-0.3867 0.6-0.3867 0.9467 0 0.3468 0.1467 0.6933 0.3867 0.9468 0.2533 0.24 0.6 0.3867 0.9467 0.3867s0.6933-0.1467 0.9467-0.3867c0.24-0.2533 0.3867-0.6 0.3867-0.9468 0-0.3467-0.1467-0.6932-0.3867-0.9467-0.5067-0.4934-1.3867-0.4934-1.8934 0z" fill="#D4C17F"/>
<path d="m29.333 49.333c0 0.7359 0.5973 1.3333 1.3333 1.3333h5.3334c0.7359 0 1.3333-0.5974 1.3333-1.3333v-8c0-0.736-0.5974-1.3333-1.3333-1.3333h-5.3333c-0.7359 0-1.3333 0.5973-1.3333 1.3333v8h-1e-4zm2.6667-6.6666h2.6667v5.3333h-2.6667v-5.3333z" fill="#D4C17F"/>
<path d="m26.667 57.333c0 0.7359 0.5974 1.3333 1.3333 1.3333h4v12c0 0.7359 0.5973 1.3332 1.3333 1.3332 0.7359 0 1.3333-0.5973 1.3333-1.3332v-12h10.667v12c0 0.7359 0.5973 1.3332 1.3333 1.3332 0.7359 0 1.3332-0.5973 1.3332-1.3332v-12h4c0.736 0 1.3333-0.5974 1.3333-1.3333 0-0.736-0.5973-1.3333-1.3333-1.3333h-24c-0.7359 0-1.3333 0.5973-1.3333 1.3333z" fill="#D4C17F"/>
<path d="m64 49.333c0 0.7359 0.5973 1.3333 1.3333 1.3333h5.3333c0.7359 0 1.3332-0.5974 1.3332-1.3333v-8c0-0.736-0.5973-1.3333-1.3332-1.3333h-5.3333c-0.736 0-1.3333 0.5973-1.3333 1.3333v8zm2.6667-6.6666h2.6667v5.3333h-2.6667v-5.3333z" fill="#D4C17F"/>
<path d="m57.333 0h-34.667c-0.7359 0-1.3333 0.59734-1.3333 1.3333v69.333c0 0.7359 0.5974 1.3332 1.3333 1.3332 0.736 0 1.3333-0.5973 1.3333-1.3332v-68h32v68c0 0.7359 0.5973 1.3332 1.3333 1.3332 0.7359 0 1.3333-0.5973 1.3333-1.3332v-69.333c1e-4 -0.73594-0.5972-1.3333-1.3333-1.3333z" fill="#D4C17F"/>
</svg>
