<?xml version="1.0" encoding="UTF-8"?>
<svg fill="none" viewBox="0 0 80 80" xmlns="http://www.w3.org/2000/svg">
<g clip-path="url(#a)" fill="#D4C17F">
<path d="m53.389 4.6219c0.1826 0 0.3667-0.03734 0.544-0.11734 0.3813-0.17062 0.768-0.33203 1.16-0.48 0.6894-0.26265 1.036-1.032 0.7733-1.72-0.2614-0.68937-1.032-1.0306-1.7187-0.77468-0.4414 0.16797-0.8774 0.34937-1.3053 0.5414-0.6721 0.30141-0.9733 1.0906-0.6707 1.7627 0.2214 0.49453 0.7068 0.78796 1.2174 0.78796z"/>
<path d="m53.333 33.538c0.7374 0 1.3333-0.5959 1.3333-1.3332v-0.2307c0-0.3506 0.0227-0.6946 0.0667-1.0332 0.096-0.7307-0.4187-1.4-1.1467-1.496-0.752-0.0959-1.4 0.4186-1.4973 1.148-0.0586 0.4506-0.0894 0.9159-0.0894 1.3814v0.2306c1e-4 0.7372 0.5961 1.3331 1.3334 1.3331z"/>
<path d="m46.667 33.867c0.7374 0 1.3333-0.5973 1.3333-1.3333v-1.3546c0-0.736-0.5959-1.3333-1.3333-1.3333-0.7373 0-1.3333 0.5973-1.3333 1.3333v1.3546c0 0.736 0.596 1.3333 1.3333 1.3333z"/>
<path d="m54.323 12.778c-0.4294 0.2359-0.8494 0.4906-1.2533 0.7614-0.612 0.4094-0.7773 1.2386-0.3679 1.8506 0.2573 0.3841 0.68 0.5906 1.1093 0.5906 0.256 0 0.5133-0.072 0.74-0.2253 0.3427-0.228 0.696-0.4426 1.0586-0.6426 0.6441-0.3547 0.88-1.1668 0.5253-1.8107-0.3561-0.6453-1.1654-0.8773-1.812-0.524z"/>
<path d="m35.411 12.642c0.2521 0.4026 0.6853 0.624 1.1294 0.624 0.2427 0 0.488-0.0653 0.7067-0.204 0.6241-0.3921 0.8133-1.2147 0.4214-1.8374-0.252-0.4014-0.5133-0.7933-0.7879-1.1773-0.428-0.59861-1.2586-0.73861-1.86-0.30799-0.6 0.42939-0.7374 1.2614-0.3094 1.86 0.2437 0.34 0.4772 0.688 0.6998 1.0427z"/>
<path d="m59.788 2.8219c0.0547 0 0.112-0.00407 0.168-0.01063 0.412-0.05203 0.8294-0.09203 1.2506-0.1214 0.7359-0.04938 1.2906-0.68406 1.2427-1.4186-0.048-0.73469-0.6933-1.2906-1.4186-1.2414-0.4747 0.030625-0.9441 0.077344-1.408 0.13594-0.7306 0.092031-1.2494 0.75859-1.1559 1.4894 0.0839 0.67328 0.6586 1.1667 1.3212 1.1667z"/>
<path d="m54.844 24.722c-0.5 0.54-0.4694 1.3841 0.0693 1.8841 0.2588 0.2386 0.5827 0.3559 0.908 0.3559 0.3586 0 0.7147-0.1426 0.9786-0.4267 0.2773-0.2986 0.5827-0.5814 0.908-0.84 0.5773-0.4586 0.6732-1.2973 0.2146-1.8733-0.4573-0.5759-1.2973-0.6747-1.8732-0.2147-0.4307 0.3413-0.836 0.7174-1.2053 1.1147z"/>
<path d="m42.752 13.062c0.22 0.1386 0.4654 0.204 0.708 0.204 0.4441 0 0.8774-0.2214 1.1294-0.624 0.2226-0.3547 0.4559-0.7027 0.7-1.0427 0.428-0.5986 0.2906-1.4306-0.3094-1.86-0.6014-0.43062-1.432-0.29062-1.86 0.30799-0.2747 0.384-0.5373 0.7759-0.788 1.1773-0.3918 0.6227-0.2026 1.4453 0.42 1.8374z"/>
<path d="m53.333 39.974c0.7374 0 1.3333-0.5973 1.3333-1.3333v-0.6667c0-0.7359-0.5959-1.3332-1.3333-1.3332-0.7373 0-1.3332 0.5973-1.3332 1.3332v0.6667c0 0.736 0.5959 1.3333 1.3332 1.3333z"/>
<path d="m46.639 27.091c0.0614 0.0094 0.1214 0.0133 0.1814 0.0133 0.6559 0 1.2293-0.4853 1.3212-1.1547 0.0547-0.4106 0.128-0.8159 0.2186-1.2159 0.1641-0.7186-0.2867-1.432-1.0053-1.5947-0.7186-0.1626-1.4333 0.2867-1.5959 1.0053-0.1068 0.476-0.1947 0.9586-0.2614 1.4467-0.0986 0.7294 0.4134 1.4014 1.1414 1.5z"/>
<path d="m37.561 17.179c0.1333 0.3947 0.2533 0.7933 0.3641 1.1986 0.1614 0.5932 0.7 0.984 1.2853 0.984 0.1159 0 0.2333-0.0159 0.3506-0.0479 0.1653-0.0441 0.3094-0.1241 0.4386-0.2186 0.1294 0.0946 0.2733 0.1746 0.4386 0.2186 0.1174 0.032 0.2347 0.0479 0.3506 0.0479 0.5854 0 1.1241-0.3906 1.2854-0.984 0.1106-0.4053 0.2293-0.8041 0.364-1.1986 0.2386-0.6974-0.1359-1.4547-0.832-1.6921-0.64-0.2185-1.3147 0.0947-1.6067 0.6868-0.2921-0.5921-0.9667-0.9053-1.6067-0.6868-0.6971 0.2374-1.0704 0.9947-0.8318 1.6921z"/>
<path d="m47.785 8.2084c0.3106 0 0.6226-0.10797 0.8747-0.32672 0.3159-0.27469 0.64-0.54141 0.9706-0.79594 0.584-0.44937 0.692-1.2853 0.244-1.8694-0.4493-0.58406-1.2867-0.69469-1.8693-0.24406-0.3747 0.28796-0.74 0.58671-1.0947 0.89734-0.5559 0.48265-0.6147 1.3253-0.1306 1.8814 0.2626 0.30281 0.6332 0.45735 1.0053 0.45735z"/>
<path d="m48.821 17.542c-0.2933 0.3894-0.5706 0.7921-0.8306 1.2053-0.3933 0.6227-0.2053 1.4468 0.4173 1.84 0.2214 0.1374 0.4653 0.2041 0.7094 0.2041 0.4427 0 0.8759-0.22 1.1294-0.6227 0.2214-0.3506 0.4559-0.692 0.7053-1.0214 0.4427-0.5879 0.3253-1.424-0.2627-1.8679-0.5893-0.4441-1.4254-0.3227-1.8681 0.2626z"/>
<path d="m61.303 10.694c-0.4933 0.0373-0.9786 0.0959-1.4573 0.1747-0.7268 0.12-1.2186 0.8067-1.0986 1.5332 0.1067 0.6533 0.6706 1.116 1.3132 1.116 0.0721 0 0.1441-0.0053 0.2174-0.0174 0.4067-0.0667 0.8159-0.1159 1.2306-0.1479 0.7347-0.0574 1.2841-0.6986 1.2267-1.4333-0.0575-0.7334-0.6828-1.288-1.432-1.2253z"/>
<path d="m66.236 2.9205c0.4147 0.06672 0.8279 0.14531 1.2359 0.23469 0.0973 0.0214 0.192 0.03062 0.2867 0.03062 0.6133 0 1.1641-0.42406 1.3014-1.0467 0.1574-0.72-0.2973-1.4306-1.0173-1.588-0.4586-0.10125-0.92-0.18797-1.388-0.26266-0.7267-0.12-1.4094 0.38-1.5253 1.1067-0.1161 0.72672 0.3786 1.4106 1.1066 1.5253z"/>
<path d="m68.517 11.652c-0.46-0.1641-0.928-0.3106-1.4014-0.436-0.708-0.184-1.44 0.236-1.6306 0.948-0.188 0.712 0.2359 1.4413 0.9479 1.6306 0.4014 0.1053 0.796 0.228 1.1827 0.368 0.1494 0.0533 0.3 0.0786 0.4506 0.0786 0.5467 0 1.06-0.34 1.2547-0.8841 0.2495-0.6931-0.1119-1.4572-0.8039-1.7051z"/>
<path d="m62.124 21.32c-0.7359 0.0374-1.3026 0.6627-1.2653 1.3974 0.036 0.7359 0.6133 1.2959 1.3974 1.2653 0.4093-0.02 0.832-8e-3 1.2373 0.0333 0.0467 0.0053 0.0933 0.0067 0.1388 0.0067 0.6759 0 1.2532-0.5106 1.3253-1.196 0.0746-0.7332-0.4586-1.3879-1.1907-1.464-0.5401-0.0547-1.0987-0.0719-1.6428-0.0427z"/>
<path d="m77.681 8.8725c0.2626 0.28797 0.624 0.43469 0.9853 0.43469 0.3214 0 0.6426-0.11469 0.8986-0.34797 0.544-0.49593 0.5826-1.34 0.0867-1.8841-0.16-0.17468-0.3227-0.34672-0.4867-0.51468-0.5174-0.52672-1.36-0.53328-1.8854-0.01875-0.5279 0.51468-0.5346 1.3586-0.0214 1.8853 0.1443 0.14546 0.2855 0.29484 0.4229 0.44546z"/>
<path d="m57.333 50.64h-16c-0.7374 0-1.3333 0.5973-1.3333 1.3332 0 0.736 0.5959 1.3333 1.3333 1.3333h16c3.7386 0 6.6667-2.9279 6.6667-6.6667v-2.6667c0-0.7359-0.5959-1.3333-1.3333-1.3333h-45.333c-0.7373 0-1.3333 0.5974-1.3333 1.3333v2.6667c0 3.7386 2.928 6.6667 6.6667 6.6667h12v6.6667c0 0.736 0.5959 1.3333 1.3333 1.3333 0.7373 0 1.3333-0.5973 1.3333-1.3333v-8c0-0.7359-0.596-1.3332-1.3333-1.3332h-13.333c-2.244 0-4-1.7574-4-4v-1.3333h42.667v1.3333c-2e-4 2.2426-1.7563 4-4.0002 4z"/>
<path d="m70.647 31.402c0.0133 0.188 0.02 0.38 0.02 0.572 0 0.736 0.5959 1.3333 1.3333 1.3333 0.7373 0 1.3333-0.5973 1.3333-1.3333 0-0.2559-0.0094-0.5093-0.028-0.7614-0.052-0.7332-0.676-1.2879-1.4241-1.2359-0.7345 0.0533-1.2865 0.6906-1.2345 1.4253z"/>
<path d="m67.831 24.083c-0.4867 0.5533-0.4332 1.3947 0.1186 1.8826 0.3094 0.2721 0.5986 0.5694 0.86 0.8841 0.2654 0.3173 0.6441 0.48 1.0268 0.48 0.3 0 0.6026-0.1013 0.852-0.308 0.5653-0.472 0.6427-1.312 0.1706-1.8786-0.3479-0.4187-0.7347-0.8159-1.1467-1.1787-0.5506-0.4853-1.3933-0.4347-1.8813 0.1186z"/>
<path d="m41.333 30.566c0-0.7359-0.596-1.3333-1.3333-1.3333-0.7374 0-1.3333 0.5974-1.3333 1.3333v1.4827c0 0.7359 0.5959 1.3333 1.3333 1.3333 0.7373 0 1.3333-0.5974 1.3333-1.3333v-1.4827z"/>
<path d="m40 36.64c-0.7374 0-1.3333 0.5973-1.3333 1.3333v0.6667c0 0.7359 0.5959 1.3333 1.3333 1.3333 0.7373 0 1.3333-0.5974 1.3333-1.3333v-0.6667c0-0.736-0.5961-1.3333-1.3333-1.3333z"/>
<path d="m45.333 38.64c0 0.7359 0.596 1.3333 1.3333 1.3333 0.7374 0 1.3333-0.5974 1.3333-1.3333v-0.6667c0-0.736-0.5959-1.3333-1.3333-1.3333-0.7373 0-1.3333 0.5973-1.3333 1.3333v0.6667z"/>
<path d="m41.333 23.974c0-0.2107 0.0027-0.4186 0.0094-0.628 0.0159-0.5694-0.332-1.0586-0.8306-1.2627-0.0506-0.0226-0.108-0.0226-0.1614-0.0386-0.1-0.0267-0.1947-0.0667-0.3027-0.0693-0.0132-0.0014-0.0253-0.0014-0.04-0.0014-0.0026 0-0.0053 0.0014-0.0079 0.0014-0.0027 0-0.0053-0.0014-8e-3 -0.0014-0.0147 0-0.0267 0-0.04 0.0014-0.108 0.0026-0.2041 0.0426-0.3027 0.0693-0.0532 0.016-0.112 0.016-0.1614 0.0386-0.4985 0.2041-0.8467 0.6933-0.8306 1.2627 0.0067 0.2094 0.0094 0.4173 0.0094 0.628v0.6667c0 0.7359 0.5959 1.3333 1.3333 1.3333 0.7373 0 1.3332-0.5974 1.3332-1.3333v-0.6667z"/>
<path d="m32 38.64c0 0.7359 0.5959 1.3333 1.3333 1.3333 0.7373 0 1.3333-0.5974 1.3333-1.3333v-0.6667c0-0.736-0.596-1.3333-1.3333-1.3333-0.7374 0-1.3333 0.5973-1.3333 1.3333v0.6667z"/>
<path d="m33.333 33.867c0.7373 0 1.3333-0.5973 1.3333-1.3333v-1.3546c0-0.736-0.596-1.3333-1.3333-1.3333-0.7374 0-1.3333 0.5973-1.3333 1.3333v1.3546c0 0.736 0.5959 1.3333 1.3333 1.3333z"/>
<path d="m28 38.64v-0.6667c0-0.736-0.5959-1.3333-1.3333-1.3333-0.7373 0-1.3333 0.5973-1.3333 1.3333v0.6667c0 0.7359 0.596 1.3333 1.3333 1.3333 0.7374 0 1.3333-0.5972 1.3333-1.3333z"/>
<path d="m9.312 27.022c0.24937 0.2067 0.55062 0.308 0.85198 0.308 0.3827 0 0.7614-0.1627 1.0268-0.48 0.2614-0.3147 0.5506-0.612 0.86-0.8841 0.552-0.4879 0.6053-1.3293 0.1186-1.8826-0.4854-0.5533-1.328-0.6067-1.8814-0.1188-0.41208 0.3627-0.7988 0.76-1.148 1.1788-0.47062 0.5667-0.39328 1.4067 0.17204 1.8787z"/>
<path d="m73.333 63.974h-28v-6.6667c0-0.736-0.5959-1.3333-1.3332-1.3333-0.7374 0-1.3333 0.5973-1.3333 1.3333v8c0 0.7359 0.5959 1.3332 1.3333 1.3332h28v6.6667c0 2.2054-1.7947 4-4 4h-56c-2.2053 0-4-1.7946-4-4v-6.6667h30.777c0.7374 0 1.3333-0.5973 1.3333-1.3332 0-0.736-0.5959-1.3333-1.3333-1.3333h-32.111c-0.73735 0-1.3333 0.5973-1.3333 1.3333v7.9999c0 3.676 2.9906 6.6668 6.6667 6.6668h56c3.6759 0 6.6667-2.9907 6.6667-6.6668v-7.9999c-1e-4 -0.736-0.5961-1.3333-1.3334-1.3333z"/>
<path d="m32 70.64v2.6667c0 0.736 0.5959 1.3333 1.3333 1.3333 0.7373 0 1.3333-0.5973 1.3333-1.3333v-2.6667c0-0.7359-0.596-1.3332-1.3333-1.3332-0.7374 0-1.3333 0.5973-1.3333 1.3332z"/>
<path d="m1.3934 25.975c-0.01594-0.0014-0.03203-0.0014-0.04797-0.0014-0.71328 0-1.3067 0.5667-1.3306 1.2867-0.009375 0.2374-0.014687 0.4747-0.014687 0.7133 0 0.7359 0.59594 1.3333 1.3333 1.3333 0.73734 0 1.3333-0.5974 1.3333-1.3333 0-0.208 0.00531-0.4133 0.01203-0.62 0.02531-0.7359-0.54937-1.3533-1.2853-1.3786z"/>
<path d="m7.1534 17.414c0.29859-0.288 0.60937-0.5627 0.92937-0.8241 0.57062-0.4667 0.65594-1.3067 0.18937-1.8759-0.46531-0.5694-1.3053-0.6574-1.8759-0.1894-0.37734 0.3094-0.74406 0.6333-1.0933 0.972-0.53062 0.5107-0.54531 1.3547-0.03469 1.8853 0.26141 0.2707 0.61063 0.4068 0.96 0.4068 0.33313-2e-4 0.66781-0.1241 0.92516-0.3747z"/>
<path d="m3.6281 19.603c-0.65734-0.328-1.4614-0.0641-1.7894 0.5947-0.21859 0.4347-0.4214 0.8814-0.60265 1.3359-0.27328 0.6853 0.06 1.46 0.74265 1.7333 0.16266 0.0653 0.32937 0.0959 0.49469 0.0959 0.52937 0 1.0306-0.3173 1.2386-0.8386 0.15328-0.3853 0.32406-0.7626 0.50937-1.132 0.33063-0.6584 0.06531-1.4584-0.59328-1.7892z"/>
<path d="m6.0294 5.5631c0.22531 0 0.45469-0.05735 0.66406-0.17735 0.36141-0.20797 0.72797-0.40406 1.1026-0.58672 0.66-0.32531 0.93203-1.1253 0.60797-1.7853-0.32531-0.66141-1.1267-0.93203-1.7853-0.60797-0.42672 0.20937-0.84531 0.43203-1.2559 0.66797-0.63735 0.36796-0.85734 1.1826-0.48938 1.8214 0.24672 0.42797 0.69594 0.66797 1.1559 0.66797z"/>
<path d="m18.667 70.64v2.6667c0 0.736 0.5959 1.3333 1.3333 1.3333 0.7373 0 1.3332-0.5973 1.3332-1.3333v-2.6667c0-0.7359-0.5959-1.3332-1.3332-1.3332-0.7374 0-1.3333 0.5973-1.3333 1.3332z"/>
<path d="m78.021 23.267c0.6827-0.2733 1.016-1.0479 0.7427-1.7332-0.1814-0.4547-0.3841-0.9014-0.6027-1.336-0.3293-0.6586-1.1306-0.9214-1.7893-0.5947-0.6586 0.3307-0.9241 1.1307-0.5933 1.7894 0.1853 0.3694 0.3559 0.7467 0.5094 1.132 0.2079 0.5214 0.7093 0.8386 1.2373 0.8386 0.1666-1e-4 0.3333-0.0308 0.4959-0.0961z"/>
<path d="m79.985 27.26c-0.0241-0.7373-0.6773-1.328-1.3786-1.2853-0.7359 0.0253-1.3106 0.6427-1.2853 1.3786 0.0067 0.2067 0.012 0.412 0.012 0.62 0 0.7359 0.596 1.3333 1.3333 1.3333 0.7374 0 1.3333-0.5974 1.3333-1.3333 0-0.2386-0.0055-0.4759-0.0147-0.7133z"/>
<path d="m74.636 3.0739c-0.4093-0.23593-0.8279-0.45859-1.2546-0.66796-0.656-0.32266-1.46-0.05204-1.7854 0.60796-0.324 0.66-0.052 1.46 0.608 1.7853 0.3747 0.18266 0.7414 0.37875 1.1014 0.58672 0.2106 0.12 0.44 0.17734 0.6641 0.17734 0.4614 0 0.9106-0.24 1.1573-0.66796 0.3678-0.63875 0.1478-1.4534-0.4908-1.8214z"/>
<path d="m61.333 73.307v-2.6667c0-0.7359-0.5959-1.3332-1.3333-1.3332-0.7373 0-1.3332 0.5973-1.3332 1.3332v2.6667c0 0.736 0.5959 1.3333 1.3332 1.3333 0.7374 0 1.3333-0.5973 1.3333-1.3333z"/>
<path d="m48 73.307v-2.6667c0-0.7359-0.596-1.3332-1.3333-1.3332-0.7374 0-1.3333 0.5973-1.3333 1.3332v2.6667c0 0.736 0.5959 1.3333 1.3333 1.3333 0.7372 0 1.3333-0.5973 1.3333-1.3333z"/>
<path d="m73.604 14.524c-0.572-0.468-1.412-0.38-1.8759 0.1894-0.4667 0.5694-0.3814 1.4094 0.188 1.8759 0.3214 0.2614 0.632 0.536 0.9306 0.8241 0.2573 0.2506 0.592 0.3747 0.9253 0.3747 0.3494 0 0.6973-0.136 0.96-0.4068 0.5106-0.5306 0.4959-1.3746-0.0347-1.8853-0.3492-0.3387-0.7159-0.6626-1.0933-0.972z"/>
<path d="m8.1187 29.976c-0.76141-0.0506-1.372 0.5027-1.4253 1.2359-0.01734 0.2521-0.02672 0.5053-0.02672 0.7614 0 0.736 0.59594 1.3333 1.3333 1.3333s1.3333-0.5973 1.3333-1.3333c0-0.192 0.00672-0.384 0.02-0.572 0.05219-0.7347-0.49985-1.372-1.2345-1.4253z"/>
<path d="m26.413 29.444c-0.728 0.0959-1.2427 0.7653-1.1467 1.4959 0.044 0.3386 0.0667 0.6827 0.0667 1.0333v0.2306c0 0.7373 0.5959 1.3333 1.3333 1.3333 0.7373 0 1.3333-0.596 1.3333-1.3333v-0.2306c0-0.4653-0.0294-0.9306-0.0894-1.3814-0.0972-0.7292-0.7533-1.2452-1.4972-1.1478z"/>
<path d="m24.907 4.0245c0.392 0.14797 0.7786 0.30938 1.16 0.48 0.1773 0.08 0.3614 0.11734 0.544 0.11734 0.5094 0 0.996-0.29328 1.2174-0.78796 0.3026-0.67203 0.0014-1.4614-0.6707-1.7627-0.4279-0.19203-0.864-0.37328-1.3053-0.5414-0.684-0.25594-1.4573 0.08531-1.7186 0.77468-0.2628 0.68797 0.0838 1.4574 0.7732 1.72z"/>
<path d="m24.391 15.112c0.3614 0.2 0.716 0.4146 1.0586 0.6426 0.228 0.1533 0.4841 0.2253 0.74 0.2253 0.4294 0 0.852-0.2067 1.1094-0.5906 0.4094-0.612 0.2441-1.4412-0.368-1.8506-0.4053-0.2706-0.824-0.5253-1.2533-0.7614-0.6467-0.3533-1.4559-0.1213-1.812 0.524-0.3547 0.6439-0.1187 1.456 0.5253 1.8107z"/>
<path d="m1.3334 9.3072c0.3614 0 0.72265-0.14672 0.98531-0.43469 0.13734-0.15062 0.27875-0.3 0.42265-0.44531 0.51328-0.52671 0.50531-1.3706-0.0214-1.8853-0.52406-0.51469-1.3667-0.50532-1.8853 0.01875-0.16406 0.16796-0.32672 0.33999-0.48672 0.51468-0.49594 0.54406-0.45734 1.388 0.086718 1.8841 0.25609 0.23312 0.57734 0.34781 0.89875 0.34781z"/>
<path d="m22.292 25.695c0.3253 0.2586 0.6306 0.5414 0.908 0.84 0.264 0.2841 0.62 0.4267 0.9786 0.4267 0.324 0 0.6493-0.1173 0.9079-0.3559 0.5388-0.5 0.5694-1.3441 0.0694-1.8841-0.3694-0.3973-0.7747-0.7733-1.2053-1.1147-0.58-0.4586-1.4173-0.3614-1.8733 0.2147-0.4586 0.576-0.3626 1.4147 0.2147 1.8733z"/>
<path d="m29.753 20.168c0.2533 0.4027 0.6867 0.6227 1.1294 0.6227 0.244 0 0.4879-0.0668 0.7093-0.2041 0.6227-0.3933 0.8107-1.2174 0.4174-1.84-0.2614-0.4133-0.5388-0.8159-0.8307-1.2053-0.444-0.5853-1.2785-0.7067-1.8679-0.2627-0.588 0.4441-0.7053 1.28-0.2627 1.868 0.2491 0.3295 0.4838 0.6708 0.7052 1.0214z"/>
<path d="m30.369 7.0858c0.3306 0.25469 0.6547 0.52141 0.9706 0.79594 0.2521 0.22 0.5641 0.32672 0.8747 0.32672 0.3721 0 0.7427-0.15469 1.0053-0.45735 0.4841-0.55594 0.4254-1.3986-0.1306-1.8814-0.3547-0.31063-0.72-0.60938-1.0947-0.89734-0.5826-0.45063-1.4186-0.34-1.8693 0.24406-0.448 0.58406-0.3399 1.4202 0.244 1.8694z"/>
<path d="m12.241 3.1858c0.0947 0 0.1894-0.00937 0.2853-0.03062 0.4094-0.08938 0.8227-0.16797 1.2373-0.23469 0.728-0.11468 1.2227-0.79859 1.1068-1.5253-0.1147-0.72672-0.796-1.228-1.5254-1.1067-0.4679 0.074688-0.9306 0.16141-1.3879 0.26266-0.72 0.15734-1.1747 0.86797-1.0174 1.588 0.1372 0.62281 0.688 1.0467 1.3013 1.0467z"/>
<path d="m18.793 2.6898c0.4214 0.02937 0.8386 0.06937 1.2506 0.1214 0.056 0.00672 0.1133 0.01063 0.168 0.01063 0.6627 0 1.2373-0.49328 1.3212-1.1667 0.0933-0.73062-0.4253-1.3973-1.1559-1.4894-0.4641-0.058594-0.9333-0.10531-1.4067-0.13594-0.7186-0.053281-1.372 0.50672-1.42 1.2414-0.0478 0.73453 0.5067 1.3692 1.2428 1.4186z"/>
<path d="m32.645 23.139c-0.7186 0.1626-1.1694 0.8759-1.0067 1.5947 0.092 0.3999 0.164 0.8053 0.22 1.2159 0.092 0.6694 0.664 1.1547 1.3214 1.1547 0.06 0 0.12-0.0041 0.18-0.0133 0.7294-0.0986 1.2414-0.7706 1.1426-1.5-0.0667-0.488-0.1546-0.9706-0.2614-1.4467-0.1626-0.7174-0.8812-1.1667-1.5959-1.0053z"/>
<path d="m11.933 14.242c0.1494 0 0.3014-0.0253 0.4506-0.0786 0.3868-0.14 0.7814-0.2626 1.1827-0.3679 0.712-0.1894 1.1359-0.9186 0.948-1.6306-0.1894-0.7121-0.92-1.1321-1.6307-0.948-0.4732 0.1253-0.9414 0.272-1.4014 0.4359-0.692 0.248-1.0532 1.0121-0.804 1.7053 0.1948 0.5439 0.7081 0.8839 1.2548 0.8839z"/>
<path d="m18.492 13.352c0.4147 0.032 0.8241 0.0814 1.2306 0.1479 0.0733 0.0121 0.1453 0.0174 0.2174 0.0174 0.6414 0 1.2067-0.4627 1.3132-1.1159 0.12-0.7268-0.372-1.4133-1.0985-1.5333-0.4786-0.0786-0.9641-0.1374-1.4574-0.1747-0.7253-0.0641-1.3747 0.4906-1.432 1.2253-0.0572 0.7347 0.492 1.3759 1.2267 1.4333z"/>
<path d="m16.368 24.023c0.0453 0 0.092-0.0014 0.1386-0.0067 0.4053-0.0414 0.828-0.0533 1.2373-0.0333 0.7668 0.0347 1.3614-0.5294 1.3974-1.2653 0.0373-0.7347-0.5294-1.36-1.2653-1.3974-0.5453-0.0294-1.1041-0.012-1.6427 0.0427-0.732 0.0759-1.2653 0.7306-1.1906 1.464 0.0719 0.6854 0.6492 1.196 1.3253 1.196z"/>
</g>
<defs>
<clipPath id="a">
<rect width="80" height="80" fill="#fff"/>
</clipPath>
</defs>
</svg>
