<?xml version="1.0" encoding="UTF-8"?>
<svg viewBox="0 0 134 66" xmlns="http://www.w3.org/2000/svg">
<path d="m1.4062 37v-24.609h3.0586v10.723h3.1641v2.9883h-3.1641v10.898h-3.0586zm7.9805-10.898v-2.9883h3.1289v-10.723h3.0938v24.609h-3.0938v-10.898h-3.1289zm8.9649 5.6953v-8.6836c0-1.1016 0.4922-2.1797 1.4765-3.2344 1.2188-1.2656 2.7422-1.8984 4.5703-1.8984v2.8476c-1.3828 0-2.3437 0.5742-2.8828 1.7227-0.164 0.3515-0.2461 0.7031-0.2461 1.0547v7.7343c0 0.8672 0.3985 1.6055 1.1953 2.2149 0.5625 0.4219 1.2071 0.6328 1.9336 0.6328v2.8477c-2.2265 0-3.9492-0.9024-5.1679-2.7071-0.586-0.8906-0.8789-1.7343-0.8789-2.5312zm7.5586 5.2383v-2.8477c1.2421 0 2.1328-0.5625 2.6718-1.6875 0.1875-0.375 0.2813-0.7383 0.2813-1.0898v-7.8047c0-0.961-0.4102-1.7227-1.2305-2.2852-0.5156-0.3281-1.1016-0.4922-1.7578-0.4922v-2.8476c2.1562 0 3.8203 0.8789 4.9922 2.6367 0.5859 0.8672 0.8789 1.6992 0.8789 2.4961v8.6836c0 1.1484-0.4922 2.2617-1.4766 3.3398-1.1484 1.2422-2.6015 1.875-4.3593 1.8985zm8.5078-5.0977v-13.922h2.9882v13.57c0 0.8438 0.4219 1.5469 1.2657 2.1094 0.5625 0.3516 1.1836 0.5274 1.8633 0.5274v2.9531c-2.25 0-3.9844-0.8789-5.2032-2.6367-0.6093-0.8907-0.914-1.7579-0.914-2.6016zm7.664 5.2383v-2.9531c1.2657 0 2.1914-0.5039 2.7774-1.5118 0.2109-0.375 0.3164-0.75 0.3164-1.125v-13.57h2.9883v13.922c0 1.1016-0.5039 2.1914-1.5118 3.2695-1.2187 1.2891-2.7421 1.9453-4.5703 1.9688zm8.1211-5.168 2.7774-0.5273c0 1.0547 0.5507 1.8867 1.6523 2.4961 0.5391 0.2578 1.0547 0.3984 1.5469 0.4218v2.7774c-2.2735 0-3.9727-0.8203-5.0977-2.461-0.5859-0.8671-0.8789-1.7695-0.8789-2.707zm0.1758-8.6484c0-2.1328 0.9727-3.7149 2.918-4.7461 0.9375-0.4922 1.875-0.7383 2.8125-0.7383v2.7422c-1.0782 0-1.9102 0.4453-2.4961 1.3359-0.3047 0.4453-0.4571 0.9141-0.4571 1.4063 0 0.75 0.586 1.3594 1.7579 1.8281 0.8906 0.375 2.6132 0.8672 5.1679 1.4766 1.5938 0.3281 2.7305 1.1132 3.4102 2.3554 0.3516 0.6563 0.5273 1.3946 0.5273 2.2149 0 2.25-0.9023 3.914-2.707 4.9922-1.0547 0.6328-2.2617 0.9492-3.6211 0.9492v-2.7774c1.0781 0 1.9805-0.375 2.707-1.125 0.5157-0.539 0.7735-1.1718 0.7735-1.8984 0-0.9375-0.9258-1.6875-2.7774-2.25-0.4687-0.1406-1.2187-0.3398-2.25-0.5977-1.1015-0.2578-1.8984-0.4687-2.3906-0.6328-1.7812-0.7031-2.8594-1.7695-3.2344-3.1992-0.0937-0.4219-0.1406-0.8672-0.1406-1.3359zm7.2773-2.7071v-2.7773c2.0157 0 3.6446 0.75 4.8868 2.25 0.7734 0.9609 1.1601 1.9688 1.1601 3.0234l-2.7773 0.4571c0-1.2891-0.7031-2.1914-2.1094-2.7071-0.4219-0.164-0.8086-0.2461-1.1602-0.2461zm8.4376 11.145v-8.7188c0.0234-1.0781 0.539-2.1445 1.5468-3.1992 1.2188-1.2422 2.6953-1.875 4.4297-1.8984v2.7773c-1.125 0-2.0039 0.4922-2.6367 1.4766-0.2578 0.4218-0.3867 0.8086-0.3867 1.1601v2.3907h7.875v-2.3907c0-1.0547-0.5391-1.8281-1.6172-2.3203-0.4922-0.2344-0.9961-0.3515-1.5117-0.3515v-2.7422c1.6172 0 3.0586 0.5742 4.3242 1.7226 1.0547 1.0078 1.5937 2.1211 1.6172 3.3399v5.5898h-10.688v3.1641c0 0.6562 0.375 1.2656 1.125 1.8281 0.6093 0.4219 1.2539 0.6328 1.9336 0.6328v2.7422c-2.1328 0-3.8086-0.8672-5.0274-2.6016-0.6562-0.914-0.9843-1.7812-0.9843-2.6015zm7.6992 5.2031v-2.7773c1.4062 0 2.4609-0.6094 3.164-1.8282 0.1407-0.2578 0.2461-0.5039 0.3164-0.7383l2.4961 0.9141c-0.4218 1.6172-1.3828 2.8359-2.8828 3.6563-0.9609 0.5156-1.9922 0.7734-3.0937 0.7734zm7.6992-24.609h3.0937l6.2579 21.375-1.125 3.2344h-1.0899l-7.1367-24.609zm8.5781 13.043 4.3594-13.043h3.0937c-0.2109 0.6797-1.0898 3.3985-2.6367 8.1563-1.8047 5.5312-2.8359 8.707-3.0937 9.5273h-0.3516l-1.3711-4.6406zm9.1406 4.7109v-11.566c0-1.2422 0.5274-2.5078 1.5821-3.7969 1.406-1.6874 3.187-2.5429 5.344-2.5664v3.0586c-1.43 0-2.543 0.7266-3.34 2.1797-0.328 0.6328-0.492 1.1953-0.492 1.6875v11.004c0 1.4766 0.726 2.625 2.179 3.4453 0.61 0.3516 1.149 0.5274 1.618 0.5274v3.0586c-1.336 0-2.672-0.4805-4.008-1.4414-1.899-1.4063-2.8596-3.2696-2.8831-5.5899zm8.8241 7.0313v-3.0586c0.82 0 1.653-0.3633 2.496-1.0899 0.891-0.7968 1.348-1.7578 1.371-2.8828v-11.004c0-0.914-0.375-1.7929-1.125-2.6367-0.773-0.7969-1.687-1.207-2.742-1.2305v-3.0586c2.367 0 4.266 1.0196 5.695 3.0586 0.821 1.1719 1.231 2.2735 1.231 3.3047v11.566c0 2.6016-1.16 4.5938-3.481 5.9766-1.218 0.7031-2.367 1.0547-3.445 1.0547zm9.774-0.1758h3.058v-24.609h-3.058v24.609zm4.816-11.004h3.797c3.07-0.0234 4.992-1.1953 5.766-3.5156 0.304-0.9375 0.457-2.0508 0.457-3.3399 0-4.289-1.934-6.539-5.801-6.75h-0.422-3.797v2.9532h3.305c2.367 0.0468 3.562 1.3124 3.586 3.7968-0.047 2.5547-1.231 3.8438-3.551 3.8672h-3.34v2.9883z" fill="#fff"/>
<path d="m2.892 58.584-2.544-4.104h0.96l2.304 3.78h1.596v-3.78h0.924v3.78h1.596l2.292-3.78h0.972l-2.556 4.104 2.868 4.416h-0.972l-2.484-3.996h-1.716v3.996h-0.924v-3.996h-1.716l-2.484 3.996h-0.972l2.856-4.416zm11.812 3.156 5.28-7.26h0.696v8.52h-0.84v-7.14l-5.196 7.14h-0.768v-8.52h0.828v7.26zm11.508-5.004c-0.096 1.128-0.22 2.092-0.372 2.892-0.144 0.8-0.328 1.456-0.552 1.968-0.216 0.504-0.48 0.876-0.792 1.116-0.304 0.232-0.664 0.348-1.08 0.348l-0.144-0.804c0.16-8e-3 0.312-0.04 0.456-0.096 0.152-0.056 0.296-0.156 0.432-0.3 0.136-0.152 0.264-0.356 0.384-0.612 0.12-0.264 0.232-0.6 0.336-1.008 0.104-0.416 0.196-0.916 0.276-1.5 0.088-0.584 0.164-1.276 0.228-2.076l0.18-2.184h4.332v8.52h-0.828v-7.776h-2.736l-0.12 1.512zm10.745 6.324c-0.592 0-1.136-0.12-1.632-0.36-0.488-0.248-0.908-0.572-1.26-0.972-0.352-0.408-0.624-0.872-0.816-1.392s-0.288-1.052-0.288-1.596c0-0.568 0.1-1.112 0.3-1.632 0.208-0.52 0.492-0.98 0.852-1.38s0.784-0.716 1.272-0.948c0.488-0.24 1.016-0.36 1.584-0.36 0.592 0 1.132 0.128 1.62 0.384 0.496 0.248 0.916 0.576 1.26 0.984 0.352 0.408 0.624 0.872 0.816 1.392 0.192 0.512 0.288 1.036 0.288 1.572 0 0.568-0.104 1.112-0.312 1.632-0.2 0.52-0.48 0.98-0.84 1.38-0.352 0.392-0.772 0.708-1.26 0.948-0.488 0.232-1.016 0.348-1.584 0.348zm-3.156-4.32c0 0.464 0.076 0.912 0.228 1.344 0.152 0.424 0.368 0.804 0.648 1.14 0.28 0.328 0.612 0.592 0.996 0.792 0.384 0.192 0.812 0.288 1.284 0.288 0.48 0 0.916-0.104 1.308-0.312s0.724-0.48 0.996-0.816 0.48-0.716 0.624-1.14c0.152-0.424 0.228-0.856 0.228-1.296 0-0.464-0.08-0.908-0.24-1.332-0.152-0.432-0.368-0.812-0.648-1.14s-0.612-0.588-0.996-0.78c-0.384-0.2-0.808-0.3-1.272-0.3-0.48 0-0.916 0.104-1.308 0.312-0.392 0.2-0.724 0.468-0.996 0.804s-0.484 0.716-0.636 1.14c-0.144 0.424-0.216 0.856-0.216 1.296zm15.456-6.732c-0.016 0.384-0.18 0.692-0.492 0.924-0.304 0.224-0.728 0.336-1.272 0.336s-0.972-0.112-1.284-0.336c-0.304-0.232-0.464-0.54-0.48-0.924h0.516c0 0.104 0.032 0.204 0.096 0.3s0.152 0.18 0.264 0.252 0.244 0.132 0.396 0.18c0.152 0.04 0.32 0.06 0.504 0.06 0.344 0 0.628-0.072 0.852-0.216 0.232-0.152 0.364-0.344 0.396-0.576h0.504zm-4.44 9.732 5.28-7.26h0.696v8.52h-0.84v-7.14l-5.196 7.14h-0.768v-8.52h0.828v7.26zm14.915-3.48h1.296l2.784-3.78h0.96l-2.988 4.104 3.3 4.416h-0.96l-3.024-3.996h-1.368v3.996h-0.828v-8.52h0.828v3.78zm10.923 4.8c-0.592 0-1.136-0.12-1.632-0.36-0.488-0.248-0.908-0.572-1.26-0.972-0.352-0.408-0.624-0.872-0.816-1.392s-0.288-1.052-0.288-1.596c0-0.568 0.1-1.112 0.3-1.632 0.208-0.52 0.492-0.98 0.852-1.38s0.784-0.716 1.272-0.948c0.488-0.24 1.016-0.36 1.584-0.36 0.592 0 1.132 0.128 1.62 0.384 0.496 0.248 0.916 0.576 1.26 0.984 0.352 0.408 0.624 0.872 0.816 1.392 0.192 0.512 0.288 1.036 0.288 1.572 0 0.568-0.104 1.112-0.312 1.632-0.2 0.52-0.48 0.98-0.84 1.38-0.352 0.392-0.772 0.708-1.26 0.948-0.488 0.232-1.016 0.348-1.584 0.348zm-3.156-4.32c0 0.464 0.076 0.912 0.228 1.344 0.152 0.424 0.368 0.804 0.648 1.14 0.28 0.328 0.612 0.592 0.996 0.792 0.384 0.192 0.812 0.288 1.284 0.288 0.48 0 0.916-0.104 1.308-0.312s0.724-0.48 0.996-0.816 0.48-0.716 0.624-1.14c0.152-0.424 0.228-0.856 0.228-1.296 0-0.464-0.08-0.908-0.24-1.332-0.152-0.432-0.368-0.812-0.648-1.14s-0.612-0.588-0.996-0.78c-0.384-0.2-0.808-0.3-1.272-0.3-0.48 0-0.916 0.104-1.308 0.312-0.392 0.2-0.724 0.468-0.996 0.804s-0.484 0.716-0.636 1.14c-0.144 0.424-0.216 0.856-0.216 1.296zm17.724 4.26v-6.996l-3.108 5.412h-0.492l-3.108-5.412v6.996h-0.84v-8.52h0.864l3.324 5.832 3.348-5.832h0.852v8.52h-0.84zm4.4626-8.52h6.576v8.52h-0.84v-7.776h-4.908v7.776h-0.828v-8.52zm12.102 2.256c-0.096 1.128-0.22 2.092-0.372 2.892-0.144 0.8-0.328 1.456-0.552 1.968-0.216 0.504-0.48 0.876-0.792 1.116-0.304 0.232-0.664 0.348-1.08 0.348l-0.144-0.804c0.16-8e-3 0.312-0.04 0.456-0.096 0.152-0.056 0.296-0.156 0.432-0.3 0.136-0.152 0.264-0.356 0.384-0.612 0.12-0.264 0.232-0.6 0.336-1.008 0.104-0.416 0.196-0.916 0.276-1.5 0.088-0.584 0.164-1.276 0.228-2.076l0.18-2.184h4.332v8.52h-0.828v-7.776h-2.736l-0.12 1.512zm13.037 5.52v0.744h-5.724v-8.52h5.616v0.744h-4.776v3.072h4.164v0.708h-4.164v3.252h4.884zm3.868-3.996h1.296l2.784-3.78h0.96l-2.988 4.104 3.3 4.416h-0.96l-3.024-3.996h-1.368v3.996h-0.828v-8.52h0.828v3.78zm6.915 0.42c0-0.512 0.088-1.02 0.264-1.524 0.184-0.512 0.448-0.968 0.792-1.368s0.768-0.724 1.272-0.972c0.504-0.256 1.076-0.384 1.716-0.384 0.76 0 1.408 0.172 1.944 0.516 0.544 0.344 0.944 0.792 1.2 1.344l-0.66 0.408c-0.136-0.28-0.304-0.516-0.504-0.708-0.192-0.192-0.4-0.348-0.624-0.468s-0.456-0.204-0.696-0.252c-0.24-0.056-0.476-0.084-0.708-0.084-0.512 0-0.964 0.104-1.356 0.312s-0.724 0.48-0.996 0.816c-0.264 0.336-0.464 0.716-0.6 1.14-0.136 0.416-0.204 0.84-0.204 1.272 0 0.472 0.08 0.924 0.24 1.356 0.168 0.432 0.392 0.816 0.672 1.152 0.288 0.328 0.624 0.592 1.008 0.792 0.392 0.192 0.816 0.288 1.272 0.288 0.24 0 0.484-0.028 0.732-0.084 0.256-0.064 0.5-0.16 0.732-0.288 0.24-0.136 0.46-0.3 0.66-0.492 0.2-0.2 0.368-0.44 0.504-0.72l0.696 0.36c-0.136 0.32-0.328 0.604-0.576 0.852-0.248 0.24-0.524 0.444-0.828 0.612s-0.628 0.296-0.972 0.384c-0.336 0.088-0.668 0.132-0.996 0.132-0.584 0-1.12-0.128-1.608-0.384s-0.908-0.588-1.26-0.996c-0.352-0.416-0.628-0.884-0.828-1.404-0.192-0.528-0.288-1.064-0.288-1.608z" fill="#fff"/>
</svg>
