<svg width="77" height="78" viewBox="0 0 77 78" fill="none" xmlns="http://www.w3.org/2000/svg">
<path fill-rule="evenodd" clip-rule="evenodd" d="M38.5 0C17.237 0 0 17.4609 0 39C0 60.5391 17.237 78 38.5 78C59.763 78 77 60.5391 77 39C77 17.4609 59.763 0 38.5 0ZM30.0353 18.3256C32.2251 18.2246 32.9251 18.1999 38.4987 18.1999C44.0741 18.1999 44.7715 18.2246 46.9613 18.3256C49.1473 18.427 50.6402 18.7776 51.9493 19.2919C53.301 19.8228 54.4432 20.5335 55.5854 21.6905C56.7276 22.8466 57.4291 24.0071 57.9553 25.3751C58.4601 26.6977 58.8066 28.2092 58.9093 30.4235C59.0077 32.6422 59.0333 33.3512 59.0333 39.0001C59.0333 44.6491 59.0077 45.3563 58.9093 47.575C58.8066 49.7885 58.4601 51.3004 57.9553 52.6234C57.4291 53.991 56.7276 55.1515 55.5854 56.3077C54.4445 57.4647 53.3006 58.1771 51.9505 58.7084C50.6441 59.2227 49.1503 59.5733 46.9643 59.6747C44.7741 59.7757 44.0764 59.8004 38.4994 59.8004C32.9232 59.8004 32.2238 59.7757 30.0335 59.6747C27.848 59.5733 26.3555 59.2227 25.049 58.7084C23.6994 58.1771 22.5538 57.4647 21.4129 56.3077C20.2711 55.1515 19.5696 53.991 19.0447 52.623C18.5373 51.3004 18.1912 49.789 18.0907 47.5746C17.9915 45.3559 17.9667 44.6491 17.9667 39.0001C17.9667 33.3512 17.9923 32.6418 18.0903 30.4231C18.1887 28.2096 18.5352 26.6977 19.0442 25.3747C19.5704 24.0071 20.272 22.8466 21.4142 21.6905C22.5555 20.5339 23.7011 19.8232 25.0516 19.2919C26.3572 18.7776 27.8493 18.427 30.0353 18.3256ZM38.4987 18.1999C38.4998 18.1999 38.5009 18.1999 38.5019 18.1999H38.4955C38.4966 18.1999 38.4976 18.1999 38.4987 18.1999Z" fill="#F2F2F2"/>
<path fill-rule="evenodd" clip-rule="evenodd" d="M36.6599 21.9486C37.0176 21.948 37.4023 21.9482 37.8176 21.9484L38.5019 21.9486C43.9844 21.9486 44.6342 21.9685 46.7992 22.0682C48.8012 22.1609 49.8878 22.4998 50.6116 22.7845C51.5698 23.1615 52.253 23.6121 52.9712 24.3402C53.6899 25.0682 54.1348 25.7615 54.5078 26.7322C54.7889 27.4645 55.1238 28.5652 55.215 30.5932C55.3133 32.7859 55.3347 33.4446 55.3347 38.9956C55.3347 44.5467 55.3133 45.2054 55.215 47.3981C55.1234 49.4261 54.7889 50.5268 54.5078 51.2591C54.1357 52.2298 53.6899 52.9209 52.9712 53.6485C52.2526 54.3765 51.5702 54.8272 50.6116 55.2042C49.8886 55.4902 48.8012 55.8282 46.7992 55.9209C44.6346 56.0206 43.9844 56.0423 38.5019 56.0423C33.019 56.0423 32.3692 56.0206 30.2047 55.9209C28.2026 55.8273 27.1161 55.4885 26.3918 55.2038C25.4336 54.8268 24.7492 54.3761 24.0305 53.6481C23.3118 52.9201 22.8669 52.2285 22.4939 51.2574C22.2128 50.525 21.8779 49.4243 21.7868 47.3963C21.6884 45.2036 21.6687 44.545 21.6687 38.9904C21.6687 33.4359 21.6884 32.7807 21.7868 30.588C21.8783 28.56 22.2128 27.4593 22.4939 26.7261C22.8661 25.7554 23.3118 25.0621 24.0305 24.3341C24.7492 23.6061 25.4336 23.1554 26.3918 22.7775C27.1157 22.4915 28.2026 22.1535 30.2047 22.0604C32.0989 21.9737 32.833 21.9477 36.6599 21.9434V21.9486ZM49.4626 25.4024C48.1023 25.4024 46.9986 26.5191 46.9986 27.8976C46.9986 29.2756 48.1023 30.3936 49.4626 30.3936C50.823 30.3936 51.9266 29.2756 51.9266 27.8976C51.9266 26.5195 50.823 25.4015 49.4626 25.4015V25.4024ZM27.9571 39.0001C27.9571 33.1012 32.6783 28.3186 38.5015 28.3184C44.3249 28.3184 49.0451 33.1011 49.0451 39.0001C49.0451 44.8992 44.3254 49.6798 38.502 49.6798C32.6786 49.6798 27.9571 44.8992 27.9571 39.0001Z" fill="#F2F2F2"/>
<path d="M38.502 32.0669C42.2819 32.0669 45.3465 35.1709 45.3465 39.0003C45.3465 42.8293 42.2819 45.9337 38.502 45.9337C34.7217 45.9337 31.6575 42.8293 31.6575 39.0003C31.6575 35.1709 34.7217 32.0669 38.502 32.0669Z" fill="#F2F2F2"/>
</svg>
