<svg width="126" height="126" viewBox="0 0 126 126" fill="none" xmlns="http://www.w3.org/2000/svg">
<path d="M35.4058 126.242C36.6814 126.242 37.9696 125.994 39.1991 125.484C42.8934 123.951 45.2793 120.379 45.2793 116.384V93.7627C66.8414 93.7627 87.1114 85.3667 102.358 70.1204C117.604 54.8741 126 34.6031 126 13.042V5.16797C126 2.4494 123.797 0.246094 121.078 0.246094C118.36 0.246094 116.156 2.4494 116.156 5.16797V13.042C116.156 52.1238 84.3611 83.9189 45.2803 83.9189C39.8518 83.9189 35.4356 88.3342 35.4356 93.7627V116.384V116.387C35.4279 116.391 35.4183 116.395 35.4096 116.398C35.4067 116.394 35.4029 116.391 35.399 116.387L11.2915 92.3303C10.358 91.3988 9.84375 90.1588 9.84375 88.8408C9.84375 87.5219 10.358 86.2828 11.2915 85.3513L35.399 61.2937C35.4029 61.2898 35.4067 61.287 35.4106 61.2831C35.4183 61.286 35.4279 61.2898 35.4356 61.2937V61.2966V66.6914C35.4356 69.41 37.6398 71.6133 40.3575 71.6133C43.076 71.6133 45.2793 69.41 45.2793 66.6914V61.2966C45.2793 57.3014 42.8934 53.7292 39.1991 52.1969C35.5009 50.6626 31.2799 51.498 28.4459 54.3262L4.33836 78.3828C1.54097 81.1744 0 84.8889 0 88.8408C0 92.7927 1.54097 96.5062 4.33836 99.2979L28.4459 123.354C30.3368 125.242 32.8468 126.242 35.4058 126.242Z" fill="#F5737F"/>
</svg>
