<svg width="126" height="126" viewBox="0 0 126 126" fill="none" xmlns="http://www.w3.org/2000/svg">
<g clip-path="url(#clip0)">
<path d="M90.5942 126.242C89.3186 126.242 88.0304 125.994 86.8009 125.484C83.1066 123.951 80.7207 120.379 80.7207 116.384V93.7627C59.1586 93.7627 38.8886 85.3667 23.6423 70.1204C8.39603 54.8741 0 34.6031 0 13.042V5.16797C0 2.4494 2.20331 0.246094 4.92188 0.246094C7.64044 0.246094 9.84375 2.4494 9.84375 5.16797V13.042C9.84375 52.1238 41.6389 83.9189 80.7197 83.9189C86.1482 83.9189 90.5644 88.3342 90.5644 93.7627V116.384V116.387C90.5721 116.391 90.5817 116.395 90.5904 116.398C90.5933 116.394 90.5971 116.391 90.601 116.387L114.709 92.3303C115.642 91.3988 116.156 90.1588 116.156 88.8408C116.156 87.5219 115.642 86.2828 114.709 85.3513L90.601 61.2937C90.5971 61.2898 90.5933 61.287 90.5894 61.2831C90.5817 61.286 90.5721 61.2898 90.5644 61.2937V61.2966V66.6914C90.5644 69.41 88.3602 71.6133 85.6425 71.6133C82.924 71.6133 80.7207 69.41 80.7207 66.6914V61.2966C80.7207 57.3014 83.1066 53.7292 86.8009 52.1969C90.4991 50.6626 94.7201 51.498 97.5541 54.3262L121.662 78.3828C124.459 81.1744 126 84.8889 126 88.8408C126 92.7927 124.459 96.5062 121.662 99.2979L97.5541 123.354C95.6632 125.242 93.1532 126.242 90.5942 126.242Z" fill="#F5737F"/>
</g>
<defs>
<clipPath id="clip0">
<rect width="126" height="126" fill="white"/>
</clipPath>
</defs>
</svg>
