<svg width="79" height="79" viewBox="0 0 79 79" fill="none" xmlns="http://www.w3.org/2000/svg">
<path fill-rule="evenodd" clip-rule="evenodd" d="M51.8099 0.837891H27.8649C6.01171 0.837891 0.837402 6.0122 0.837402 27.8654V51.8104C0.837402 73.6636 6.01171 78.8379 27.8649 78.8379H51.8099C73.6631 78.8379 78.8374 73.6636 78.8374 51.8104V27.8654C78.8374 6.0122 73.6631 0.837891 51.8099 0.837891ZM62.9842 25.6086C64.6907 25.6086 65.076 26.4893 64.6907 27.7003C64.0893 30.4758 59.0955 37.838 57.5489 40.1182C57.255 40.5515 57.0855 40.8013 57.0943 40.8013C56.4888 41.7921 56.2686 42.2325 57.0943 43.3334C57.3928 43.7404 58.0257 44.3615 58.7491 45.0713C59.4931 45.8014 60.3327 46.6253 61.0026 47.4068C63.4246 50.1591 65.2962 52.471 65.7916 54.0673C66.2319 55.6637 65.4613 56.4893 63.8099 56.4893H58.1402C56.6377 56.4893 55.8632 55.6265 54.2125 53.7875C53.5048 52.999 52.636 52.031 51.4796 50.8747C48.1219 47.627 46.6356 47.1866 45.8099 47.1866C44.654 47.1866 44.3237 47.4618 44.3237 49.1132V54.2325C44.3237 55.6086 43.8833 56.4343 40.2503 56.4343C34.2503 56.4343 27.5897 52.8013 22.9108 46.0306C15.865 36.1224 13.9384 28.6361 13.9384 27.1499C13.9384 26.3242 14.2136 25.5536 15.865 25.5536H21.5897C23.0209 25.5536 23.5714 26.1591 24.1219 27.7554C26.9292 35.8471 31.6081 42.9481 33.5347 42.9481C34.2503 42.9481 34.5806 42.6178 34.5806 40.8013V32.4343C34.4447 30.0561 33.6168 29.0199 33.0029 28.2515C32.6221 27.775 32.3237 27.4014 32.3237 26.8747C32.3237 26.2141 32.8741 25.5536 33.7549 25.5536H42.6723C43.8833 25.5536 44.3237 26.2141 44.3237 27.6453V38.9297C44.3237 40.1407 44.8191 40.5811 45.2044 40.5811C45.92 40.5811 46.5255 40.1407 47.8466 38.8196C51.92 34.2508 54.8375 27.2049 54.8375 27.2049C55.2228 26.3793 55.8833 25.6086 57.3145 25.6086H62.9842Z" fill="#F2F2F2"/>
</svg>
