<svg width="420" height="420" viewBox="0 0 420 420" fill="none" xmlns="http://www.w3.org/2000/svg">
<path d="M410 249.268C415.523 249.268 420 244.791 420 239.268V180.732C420 175.209 415.523 170.732 410 170.732H391.902C387.225 170.732 383.202 167.481 381.97 162.969C377.985 148.371 372.192 134.52 364.845 121.671C362.523 117.61 363.068 112.465 366.376 109.158L379.189 96.3449C383.094 92.4397 383.094 86.108 379.189 82.2028L337.797 40.8111C333.892 36.9058 327.56 36.9058 323.655 40.8111L310.835 53.6314C307.527 56.9387 302.384 57.4849 298.323 55.164C285.476 47.8211 271.628 42.031 257.032 38.0481C252.52 36.8167 249.268 32.7935 249.268 28.116V10C249.268 4.47715 244.791 0 239.268 0H180.732C175.209 0 170.732 4.47715 170.732 10V28.1154C170.732 32.7931 167.48 36.8165 162.967 38.0477C148.372 42.0297 134.524 47.8198 121.677 55.1634C117.616 57.4846 112.472 56.9384 109.165 53.631L96.3449 40.8111C92.4397 36.9058 86.108 36.9058 82.2028 40.8111L40.8111 82.2028C36.9058 86.108 36.9058 92.4397 40.8111 96.3449L53.6235 109.157C56.9314 112.465 57.4772 117.61 55.1548 121.671C47.8075 134.52 42.0139 148.37 38.0293 162.968C36.7977 167.48 32.7746 170.732 28.0973 170.732H10C4.47715 170.732 0 175.209 0 180.732V239.268C0 244.791 4.47715 249.268 10 249.268H28.0844C32.7625 249.268 36.7861 252.521 38.0169 257.034C41.9996 271.638 47.7917 285.494 55.1387 298.349C57.4595 302.41 56.9132 307.553 53.606 310.86L40.8111 323.655C36.9058 327.56 36.9058 333.892 40.8111 337.797L82.2026 379.189C86.1079 383.094 92.4397 383.094 96.3449 379.188L109.132 366.401C112.44 363.093 117.585 362.547 121.646 364.869C134.502 372.221 148.36 378.016 162.966 382.001C167.479 383.233 170.73 387.256 170.73 391.934V410C170.73 415.523 175.207 420 180.73 420H239.267C244.79 420 249.267 415.523 249.267 410V391.934C249.267 387.256 252.518 383.233 257.031 382.002C271.638 378.016 285.496 372.221 298.351 364.869C302.412 362.547 307.557 363.092 310.865 366.4L323.653 379.189C327.559 383.094 333.89 383.094 337.796 379.189L379.187 337.797C383.093 333.892 383.093 327.56 379.187 323.655L366.393 310.86C363.085 307.553 362.539 302.41 364.86 298.349C372.207 285.495 377.999 271.638 381.982 257.034C383.212 252.521 387.236 249.268 391.914 249.268H410Z" fill="#2D9CDB"/>
<path d="M420 180.732V239.268C420 244.791 415.523 249.268 410 249.268H391.914C387.236 249.268 383.212 252.521 381.982 257.034C377.999 271.638 372.207 285.495 364.86 298.349C362.539 302.41 363.085 307.553 366.393 310.86L379.187 323.655C383.093 327.56 383.093 333.892 379.187 337.797L337.796 379.189C333.89 383.094 327.559 383.094 323.654 379.189L310.865 366.4C307.557 363.092 302.412 362.547 298.351 364.869C285.496 372.221 271.638 378.016 257.031 382.002C252.518 383.233 249.267 387.256 249.267 391.934V410C249.267 415.523 244.79 420 239.267 420H180.73C175.207 420 170.73 415.523 170.73 410V383.933L170.732 36.1168V10C170.732 4.47715 175.209 0 180.732 0H239.268C244.791 0 249.268 4.47715 249.268 10V28.116C249.268 32.7935 252.52 36.8167 257.032 38.0481C271.628 42.031 285.476 47.8211 298.323 55.164C302.384 57.4849 307.527 56.9387 310.835 53.6314L323.655 40.8111C327.56 36.9058 333.892 36.9058 337.797 40.8111L379.189 82.2028C383.094 86.108 383.094 92.4397 379.189 96.3449L366.376 109.158C363.068 112.465 362.523 117.61 364.845 121.671C372.192 134.52 377.985 148.371 381.97 162.969C383.202 167.481 387.225 170.732 391.902 170.732H410C415.523 170.732 420 175.209 420 180.732Z" fill="#FFCB7C"/>
</svg>
